<?xml version="1.0" encoding="UTF-8" standalone="no"?>
<svg
   xmlns:dc="http://purl.org/dc/elements/1.1/"
   xmlns:cc="http://creativecommons.org/ns#"
   xmlns:rdf="http://www.w3.org/1999/02/22-rdf-syntax-ns#"
   xmlns:svg="http://www.w3.org/2000/svg"
   xmlns="http://www.w3.org/2000/svg"
   xmlns:sodipodi="http://sodipodi.sourceforge.net/DTD/sodipodi-0.dtd"
   xmlns:inkscape="http://www.inkscape.org/namespaces/inkscape"
   viewBox="0 0 256.00001 256"
   height="256"
   width="256"
   xml:space="preserve"
   id="svg2"
   version="1.1"
   inkscape:version="0.91 r13725"
   sodipodi:docname="logo.svg"
   inkscape:export-filename="/data/Tools/LiveTikZ/logo.png"
   inkscape:export-xdpi="90"
   inkscape:export-ydpi="90"><sodipodi:namedview
     pagecolor="#ffffff"
     bordercolor="#666666"
     borderopacity="1"
     objecttolerance="10"
     gridtolerance="10"
     guidetolerance="10"
     inkscape:pageopacity="0"
     inkscape:pageshadow="2"
     inkscape:window-width="1920"
     inkscape:window-height="1015"
     id="namedview17391"
     showgrid="false"
     borderlayer="true"
     inkscape:showpageshadow="false"
     inkscape:zoom="2.4675653"
     inkscape:cx="174.44392"
     inkscape:cy="130.14745"
     inkscape:window-x="0"
     inkscape:window-y="0"
     inkscape:window-maximized="1"
     inkscape:current-layer="g58404" /><metadata
     id="metadata8"><rdf:RDF><cc:Work
         rdf:about=""><dc:format>image/svg+xml</dc:format><dc:type
           rdf:resource="http://purl.org/dc/dcmitype/StillImage" /><dc:title></dc:title></cc:Work></rdf:RDF></metadata><defs
     id="defs6"><clipPath
       id="clipPath20"
       clipPathUnits="userSpaceOnUse"><path
         id="path18"
         d="m 7687.43,9776.11 c 0,-27.97 -22.89,-50.86 -50.86,-50.86 l -247.73,0 c -27.96,0 -50.84,22.89 -50.84,50.86 l 0,1640.59 c 0,28 22.88,50.9 50.84,50.9 l 247.73,0 c 27.97,0 50.86,-22.9 50.86,-50.9 l 0,-1640.59"
         inkscape:connector-curvature="0" /></clipPath><clipPath
       id="clipPath210"
       clipPathUnits="userSpaceOnUse"><path
         id="path208"
         d="m 7869.78,9639.32 c 0,-27.98 -22.89,-50.86 -50.86,-50.86 l -612.36,0 c -27.97,0 -50.85,22.88 -50.85,50.86 l 0,1627.88 c 0,28 22.88,50.9 50.85,50.9 l 612.36,0 c 27.97,0 50.86,-22.9 50.86,-50.9 l 0,-1627.88"
         inkscape:connector-curvature="0" /></clipPath><clipPath
       id="clipPath400"
       clipPathUnits="userSpaceOnUse"><path
         id="path398"
         d="m 7338,11318.9 349.43,0 0,33.789 -349.43,0 z"
         inkscape:connector-curvature="0" /></clipPath><clipPath
       id="clipPath746"
       clipPathUnits="userSpaceOnUse"><path
         id="path744"
         d="m 8007.98,9535.74 c 0,-78.32 -64.07,-142.4 -142.4,-142.4 l -705.68,0 c -78.33,0 -142.4,64.08 -142.4,142.4 l 0,1609.56 c 0,78.3 64.07,142.4 142.4,142.4 l 705.68,0 c 78.33,0 142.4,-64.1 142.4,-142.4 l 0,-1609.56"
         inkscape:connector-curvature="0" /></clipPath><clipPath
       id="clipPath832"
       clipPathUnits="userSpaceOnUse"><path
         id="path830"
         d="m 7947.01,9593.84 c 0,-78.32 -64.08,-142.4 -142.39,-142.4 l -583.75,0 c -78.32,0 -142.4,64.08 -142.4,142.4 l 0,1493.36 c 0,78.3 64.08,142.4 142.4,142.4 l 583.75,0 c 78.31,0 142.39,-64.1 142.39,-142.4 l 0,-1493.36"
         inkscape:connector-curvature="0" /></clipPath><clipPath
       id="clipPath1026"
       clipPathUnits="userSpaceOnUse"><path
         id="path1024"
         d="m 7078.47,10398.6 0,-804.75 c 0,-78.36 64.05,-142.41 142.41,-142.41 l 583.73,0 c 78.28,0 142.4,64.05 142.4,142.41 l 0,804.75 -868.54,0"
         inkscape:connector-curvature="0" /></clipPath><clipPath
       id="clipPath1358"
       clipPathUnits="userSpaceOnUse"><path
         id="path1356"
         d="m 7935.79,8225.78 -1123.62,0 c -137.36,0 -249.13,-111.78 -249.13,-249.14 0,-137.36 111.77,-249.15 249.13,-249.15 l 312.72,0 0,-974.08 c 0,-137.36 111.71,-249.14 249.11,-249.14 137.4,0 249.18,111.78 249.18,249.14 l 0,974.08 312.61,0 c 137.43,0 249.21,111.79 249.21,249.15 0,137.36 -111.78,249.14 -249.21,249.14"
         inkscape:connector-curvature="0" /></clipPath><clipPath
       id="clipPath1484"
       clipPathUnits="userSpaceOnUse"><path
         id="path1482"
         d="m 7487.91,6993.16 0,313.21 c 0,96.64 79.03,175.76 175.67,175.76 l 311.59,0 0,-488.97 -487.26,0"
         inkscape:connector-curvature="0" /></clipPath><clipPath
       id="clipPath1848"
       clipPathUnits="userSpaceOnUse"><path
         id="path1846"
         d="m 7975.17,7482.13 311.51,0 c 96.72,0 175.78,-79.12 175.78,-175.76 l 0,-313.21 -487.29,0 0,488.97"
         inkscape:connector-curvature="0" /></clipPath><clipPath
       id="clipPath2100"
       clipPathUnits="userSpaceOnUse"><path
         id="path2098"
         d="m 8462.46,6993.16 0,-313.12 c 0,-96.65 -79.06,-175.77 -175.78,-175.77 l -311.51,0 0,488.89 487.29,0"
         inkscape:connector-curvature="0" /></clipPath><clipPath
       id="clipPath2460"
       clipPathUnits="userSpaceOnUse"><path
         id="path2458"
         d="m 7975.17,6993.16 0,-488.89 -311.59,0 c -96.64,0 -175.67,79.12 -175.67,175.77 l 0,313.12 487.26,0"
         inkscape:connector-curvature="0" /></clipPath><clipPath
       id="clipPath2886"
       clipPathUnits="userSpaceOnUse"><path
         id="path2884"
         d="m 7641.34,4871.82 c 0,-70.96 -57.57,-128.57 -128.56,-128.57 -71.07,0 -128.51,57.61 -128.51,128.57 0,70.99 57.44,128.5 128.51,128.5 70.99,0 128.56,-57.51 128.56,-128.5"
         inkscape:connector-curvature="0" /></clipPath><clipPath
       id="clipPath3042"
       clipPathUnits="userSpaceOnUse"><path
         id="path3040"
         d="m 8064.65,4533.59 c 0,197.79 -161.78,359.54 -359.53,359.54 l -384.73,0 c -197.77,0 -359.56,-161.75 -359.56,-359.54 l 0,-866.58 c 0,-304.75 247.13,-551.89 551.95,-551.89 304.79,0 551.87,247.14 551.87,551.89 l 0,866.58"
         inkscape:connector-curvature="0" /></clipPath><clipPath
       id="clipPath3200"
       clipPathUnits="userSpaceOnUse"><path
         id="path3198"
         d="m 7705.12,4893.13 -176.54,0 0,-87.16 c 61.96,-12.26 109.93,-95.31 109.93,-196.1 0,-100.77 -47.97,-183.75 -109.93,-196.05 l 0,-132.52 c 218.94,5.05 412.58,112.06 534.88,275.77 -12.3,186.85 -168.52,336.06 -358.34,336.06 z m -743.05,-336.06 c 122.25,-163.71 315.93,-270.72 534.8,-275.77 l 0,132.59 c -61.95,12.23 -109.89,95.28 -109.89,195.98 0,100.76 47.94,183.8 109.89,196.1 l 0,87.16 -176.48,0 c -189.84,0 -346.1,-149.21 -358.32,-336.06"
         inkscape:connector-curvature="0" /></clipPath><clipPath
       id="clipPath3356"
       clipPathUnits="userSpaceOnUse"><path
         id="path3354"
         d="m 7610.96,4609.87 c 0,-85.24 -43.97,-154.42 -98.18,-154.42 -54.29,0 -98.25,69.18 -98.25,154.42 0,85.31 43.96,154.52 98.25,154.52 54.21,0 98.18,-69.21 98.18,-154.52"
         inkscape:connector-curvature="0" /></clipPath><clipPath
       id="clipPath3478"
       clipPathUnits="userSpaceOnUse"><path
         id="path3476"
         d="m 7301.08,2264.8 c -2.42,12.47 -12.72,20.94 -22.92,19.05 -10.12,-1.96 -16.6,-13.6 -14.26,-26.03 1.55,-8.16 6.79,-14.48 12.85,-17.35 l 12,-63.56 c 0.62,-3.37 5.36,-5.29 10.39,-4.42 5.16,1.05 8.84,4.48 8.25,7.85 l -12.02,63.71 c 4.69,4.9 7.21,12.61 5.71,20.75"
         inkscape:connector-curvature="0" /></clipPath><clipPath
       id="clipPath3664"
       clipPathUnits="userSpaceOnUse"><path
         id="path3662"
         d="m 7497.77,2169.12 -190.25,-190.31 -51.93,51.9 c -17.8,17.81 -28.8,42.43 -28.8,69.59 0,27.19 11,51.8 28.8,69.59 l 51.13,51.13 c 17.81,17.81 42.37,28.84 69.57,28.84 27.18,0 51.78,-11.03 69.58,-28.84 l 51.9,-51.9"
         inkscape:connector-curvature="0" /></clipPath><clipPath
       id="clipPath3850"
       clipPathUnits="userSpaceOnUse"><path
         id="path3848"
         d="m 8296.71,1402.45 c 0,-134.24 -108.8,-243.04 -243.05,-243.04 -134.24,0 -243.04,108.8 -243.04,243.04 0,134.25 108.8,243.05 243.04,243.05 134.25,0 243.05,-108.8 243.05,-243.05"
         inkscape:connector-curvature="0" /></clipPath><clipPath
       id="clipPath4242"
       clipPathUnits="userSpaceOnUse"><path
         id="path4240"
         d="m 7699.74,951.926 c 0,0 -230.6,175.064 -181.66,551.444 36.73,284.43 203.99,409.89 404.32,413.17 159.72,2.68 345.61,-56.13 446.53,-133.08 88.14,-80.6 114.28,-113.81 114.28,-113.81 L 7699.74,951.926"
         inkscape:connector-curvature="0" /></clipPath><clipPath
       id="clipPath4526"
       clipPathUnits="userSpaceOnUse"><path
         id="path4524"
         d="M 8492.48,1660.61 7700.02,951.926 c -11.84,5.957 -58.58,59.714 -58.58,59.714 l 792.85,708.96 58.19,-59.99"
         inkscape:connector-curvature="0" /></clipPath><clipPath
       id="clipPath5434"
       clipPathUnits="userSpaceOnUse"><path
         id="path5432"
         d="m 6748.33,1159.41 716.82,-786.234 -71.29,-52.071 -711.66,787.665 66.13,50.64"
         inkscape:connector-curvature="0" /></clipPath><clipPath
       id="clipPath5526"
       clipPathUnits="userSpaceOnUse"><path
         id="path5524"
         d="m 6744.05,1163.71 716.82,-786.257 -23.48,-12.754 -711.67,787.661 18.33,11.35"
         inkscape:connector-curvature="0" /></clipPath><clipPath
       id="clipPath5672"
       clipPathUnits="userSpaceOnUse"><path
         id="path5670"
         d="m 6700.64,1120.3 716.82,-786.226 -23.49,-12.793 -711.66,787.659 18.33,11.36"
         inkscape:connector-curvature="0" /></clipPath><clipPath
       id="clipPath5798"
       clipPathUnits="userSpaceOnUse"><path
         id="path5796"
         d="m 6611,1229.17 786.23,716.82 52.06,-71.35 -787.69,-711.63 -50.6,66.16"
         inkscape:connector-curvature="0" /></clipPath><clipPath
       id="clipPath5890"
       clipPathUnits="userSpaceOnUse"><path
         id="path5888"
         d="m 6650.25,1181.31 786.26,716.81 12.78,-23.48 -787.69,-711.63 -11.35,18.3"
         inkscape:connector-curvature="0" /></clipPath><clipPath
       id="clipPath6036"
       clipPathUnits="userSpaceOnUse"><path
         id="path6034"
         d="m 6606.7,1224.82 786.23,716.82 12.78,-23.44 -787.67,-711.66 -11.34,18.28"
         inkscape:connector-curvature="0" /></clipPath><clipPath
       id="clipPath6182"
       clipPathUnits="userSpaceOnUse"><path
         id="path6180"
         d="m 6776.05,1214.52 c 0,-67.14 -54.42,-121.52 -121.52,-121.52 -67.11,0 -121.53,54.38 -121.53,121.52 0,67.07 54.42,121.53 121.53,121.53 67.1,0 121.52,-54.46 121.52,-121.53"
         inkscape:connector-curvature="0" /></clipPath><clipPath
       id="clipPath6366"
       clipPathUnits="userSpaceOnUse"><path
         id="path6364"
         d="m 6726.64,1214.52 c 0,-39.87 -32.28,-72.14 -72.11,-72.14 -39.85,0 -72.12,32.27 -72.12,72.14 0,39.81 32.27,72.12 72.12,72.12 39.83,0 72.11,-32.31 72.11,-72.12"
         inkscape:connector-curvature="0" /></clipPath><clipPath
       id="clipPath6530"
       clipPathUnits="userSpaceOnUse"><path
         id="path6528"
         d="m 7620.9,317.598 c 0,-66.434 -101.76,-50.879 -227.17,-50.879 -125.35,0 -227.1,-15.555 -227.1,50.879 0,66.437 101.75,120.332 227.1,120.332 125.41,0 227.17,-53.895 227.17,-120.332"
         inkscape:connector-curvature="0" /></clipPath><clipPath
       id="clipPath6716"
       clipPathUnits="userSpaceOnUse"><path
         id="path6714"
         d="m 6939.48,203.223 1228.28,0 0,27.441 c 0,25.195 -9.6,50.383 -28.84,69.629 -19.21,19.199 -44.39,28.809 -69.59,28.809 l -1031.42,0 c -25.19,0 -50.39,-9.61 -69.58,-28.809 -19.24,-19.246 -28.85,-44.434 -28.85,-69.629 l 0,-27.441"
         inkscape:connector-curvature="0" /></clipPath><clipPath
       id="clipPath6788"
       clipPathUnits="userSpaceOnUse"><path
         id="path6786"
         d="m 7276.34,1796.71 c -35.64,35.63 -51.3,91.17 -51.3,145.53 0,54.34 22,103.54 57.64,139.18 l 114.03,114.03 c 35.64,35.62 84.83,57.64 139.18,57.64 54.35,0 103.55,-22.02 139.18,-57.64 l 279.18,-279.18 -429.4,-368.11 -248.51,248.55"
         inkscape:connector-curvature="0" /></clipPath><clipPath
       id="clipPath7372"
       clipPathUnits="userSpaceOnUse"><path
         id="path7370"
         d="m 7541.04,1702.26 c -6.63,-5.74 -18.04,-3.52 -25.38,4.94 l -176.62,203.62 c -7.33,8.45 -7.93,20.06 -1.33,25.79 6.59,5.73 18,3.51 25.34,-4.94 l 176.71,-203.62 c 7.33,-8.46 7.91,-20.07 1.28,-25.79"
         inkscape:connector-curvature="0" /></clipPath><clipPath
       id="clipPath7642"
       clipPathUnits="userSpaceOnUse"><path
         id="path7640"
         d="m 7604.1,1756.99 c -6.62,-5.76 -18.04,-3.54 -25.37,4.9 l -176.68,203.67 c -7.34,8.44 -7.93,20.07 -1.32,25.81 6.62,5.74 18.02,3.52 25.35,-4.92 l 176.72,-203.64 c 7.32,-8.45 7.92,-20.08 1.3,-25.82"
         inkscape:connector-curvature="0" /></clipPath><clipPath
       id="clipPath7912"
       clipPathUnits="userSpaceOnUse"><path
         id="path7910"
         d="m 7667.13,1811.71 c -6.62,-5.74 -18.03,-3.53 -25.36,4.92 l -176.69,203.69 c -7.32,8.45 -7.91,20.05 -1.29,25.77 6.62,5.73 18.04,3.5 25.37,-4.96 l 176.68,-203.62 c 7.34,-8.45 7.91,-20.06 1.29,-25.8"
         inkscape:connector-curvature="0" /></clipPath><clipPath
       id="clipPath8232"
       clipPathUnits="userSpaceOnUse"><path
         id="path8230"
         d="m 7730.21,1866.41 c -6.6,-5.75 -18,-3.53 -25.32,4.92 l -176.73,203.73 c -7.33,8.46 -7.92,20.07 -1.3,25.81 6.62,5.74 18.04,3.52 25.36,-4.92 l 176.66,-203.74 c 7.33,-8.45 7.93,-20.06 1.33,-25.8"
         inkscape:connector-curvature="0" /></clipPath><clipPath
       id="clipPath8696"
       clipPathUnits="userSpaceOnUse"><path
         id="path8694"
         d="m 7793.27,1921.16 c -6.61,-5.74 -18.01,-3.51 -25.34,4.93 l -176.72,203.67 c -7.34,8.44 -7.91,20.06 -1.28,25.8 6.63,5.72 18.04,3.5 25.38,-4.95 l 176.65,-203.66 c 7.33,-8.45 7.92,-20.06 1.31,-25.79"
         inkscape:connector-curvature="0" /></clipPath><clipPath
       id="clipPath9198"
       clipPathUnits="userSpaceOnUse"><path
         id="path9196"
         d="m 10551.6,9776.11 c 0,-27.97 -22.8,-50.86 -50.8,-50.86 l -247.7,0 c -28,0 -50.9,22.89 -50.9,50.86 l 0,1640.59 c 0,28 22.9,50.9 50.9,50.9 l 247.7,0 c 28,0 50.8,-22.9 50.8,-50.9 l 0,-1640.59"
         inkscape:connector-curvature="0" /></clipPath><clipPath
       id="clipPath9388"
       clipPathUnits="userSpaceOnUse"><path
         id="path9386"
         d="m 10733.9,9639.32 c 0,-27.98 -22.9,-50.86 -50.8,-50.86 l -612.4,0 c -28,0 -50.9,22.88 -50.9,50.86 l 0,1627.88 c 0,28 22.9,50.9 50.9,50.9 l 612.4,0 c 27.9,0 50.8,-22.9 50.8,-50.9 l 0,-1627.88"
         inkscape:connector-curvature="0" /></clipPath><clipPath
       id="clipPath9578"
       clipPathUnits="userSpaceOnUse"><path
         id="path9576"
         d="m 10202.2,11318.9 349.434,0 0,33.789 -349.434,0 z"
         inkscape:connector-curvature="0" /></clipPath><clipPath
       id="clipPath9924"
       clipPathUnits="userSpaceOnUse"><path
         id="path9922"
         d="m 10872.1,9535.74 c 0,-78.32 -64.1,-142.4 -142.4,-142.4 l -705.7,0 c -78.27,0 -142.36,64.08 -142.36,142.4 l 0,1609.56 c 0,78.3 64.09,142.4 142.36,142.4 l 705.7,0 c 78.3,0 142.4,-64.1 142.4,-142.4 l 0,-1609.56"
         inkscape:connector-curvature="0" /></clipPath><clipPath
       id="clipPath10334"
       clipPathUnits="userSpaceOnUse"><path
         id="path10332"
         d="m 10348.5,6504.41 c 0,-37.42 -186.7,-67.96 -416.99,-67.96 -230.26,0 -416.94,30.54 -416.94,67.96 0,37.39 186.68,67.8 416.94,67.8 230.29,0 416.99,-30.41 416.99,-67.8"
         inkscape:connector-curvature="0" /></clipPath><clipPath
       id="clipPath10726"
       clipPathUnits="userSpaceOnUse"><path
         id="path10724"
         d="m 11015.6,6504.41 c 0,-37.42 -226.1,-67.96 -504.9,-67.96 -278.8,0 -504.7,30.54 -504.7,67.96 0,37.39 225.9,67.8 504.7,67.8 278.8,0 504.9,-30.41 504.9,-67.8"
         inkscape:connector-curvature="0" /></clipPath><clipPath
       id="clipPath11014"
       clipPathUnits="userSpaceOnUse"><path
         id="path11012"
         d="m 11112.3,8293.63 -1166.85,0 c -142.62,0 -258.68,-116.02 -258.68,-258.68 0,-142.65 116.06,-258.72 258.68,-258.72 l 324.65,0 0,-1011.5 c 0,-142.66 116.1,-258.71 258.8,-258.71 142.6,0 258.7,116.05 258.7,258.71 l 0,1011.5 324.7,0 c 142.6,0 258.7,116.07 258.7,258.72 0,142.66 -116.1,258.68 -258.7,258.68"
         inkscape:connector-curvature="0" /></clipPath><clipPath
       id="clipPath11140"
       clipPathUnits="userSpaceOnUse"><path
         id="path11138"
         d="m 10252.8,7597.11 -712.22,0 c -87.01,0 -157.83,-70.82 -157.83,-157.9 0,-87.14 70.82,-157.93 157.83,-157.93 l 198.19,0 0,-617.43 c 0,-87.05 70.89,-157.83 157.97,-157.83 87.01,0 157.86,70.78 157.86,157.83 l 0,617.43 198.2,0 c 87,0 157.9,70.79 157.9,157.93 0,87.08 -70.9,157.9 -157.9,157.9"
         inkscape:connector-curvature="0" /></clipPath><clipPath
       id="clipPath11272"
       clipPathUnits="userSpaceOnUse"><path
         id="path11270"
         d="m 10466.2,4744.05 c 0,-49.13 -39.8,-88.96 -88.9,-88.96 -49.2,0 -89,39.83 -89,88.96 0,49.2 39.8,88.98 89,88.98 49.1,0 88.9,-39.78 88.9,-88.98"
         inkscape:connector-curvature="0" /></clipPath><clipPath
       id="clipPath11428"
       clipPathUnits="userSpaceOnUse"><path
         id="path11426"
         d="m 11639.8,3696.63 c 0,-129.34 -105.9,-235.17 -235.2,-235.17 l -2055.42,0 c -129.33,0 -235.16,105.83 -235.16,235.17 l 0,815.28 c 0,129.33 105.83,235.16 235.16,235.16 l 2055.42,0 c 129.3,0 235.2,-105.83 235.2,-235.16 l 0,-815.28"
         inkscape:connector-curvature="0" /></clipPath><clipPath
       id="clipPath11584"
       clipPathUnits="userSpaceOnUse"><path
         id="path11582"
         d="m 9327.56,4630.38 c -30.9,0 -56.02,-25.09 -56.02,-55.99 l 0,-96.3 c 0,-30.98 25.12,-56.06 56.02,-56.06 l 106.53,0 c 30.91,0 55.99,25.08 55.99,56.06 l 0,96.3 c 0,30.9 -25.08,55.99 -55.99,55.99 z m -14.58,-152.29 0,96.3 c 0,7.85 6.67,14.5 14.58,14.5 l 106.53,0 c 7.93,0 14.55,-6.65 14.55,-14.5 l 0,-96.3 c 0,-7.99 -6.62,-14.61 -14.55,-14.61 l -106.53,0 c -7.91,0 -14.58,6.62 -14.58,14.61 z m 244.6,152.29 c -30.9,0 -56.07,-25.09 -56.07,-55.99 l 0,-96.3 c 0,-30.98 25.17,-56.06 56.07,-56.06 l 106.6,0 c 30.9,0 56.03,25.08 56.03,56.06 l 0,96.3 c 0,30.9 -25.13,55.99 -56.03,55.99 z m -14.58,-152.29 0,96.3 c 0,7.85 6.66,14.5 14.58,14.5 l 106.6,0 c 7.91,0 14.53,-6.65 14.53,-14.5 l 0,-96.3 c 0,-7.99 -6.62,-14.61 -14.53,-14.61 l -106.6,0 c -7.92,0 -14.58,6.62 -14.58,14.61 z m 244.66,152.29 c -30.9,0 -56.02,-25.09 -56.02,-55.99 l 0,-96.3 c 0,-30.98 25.12,-56.06 56.02,-56.06 l 106.52,0 c 30.92,0 56,25.08 56,56.06 l 0,96.3 c 0,30.9 -25.08,55.99 -56,55.99 z m -14.57,-152.29 0,96.3 c 0,7.85 6.65,14.5 14.57,14.5 l 106.52,0 c 7.93,0 14.55,-6.65 14.55,-14.5 l 0,-96.3 c 0,-7.99 -6.62,-14.61 -14.55,-14.61 l -106.52,0 c -7.92,0 -14.57,6.62 -14.57,14.61 z m 244.61,152.29 c -30.94,0 -56.09,-25.09 -56.09,-55.99 l 0,-96.3 c 0,-30.98 25.15,-56.06 56.09,-56.06 l 106.5,0 c 30.9,0 56,25.08 56,56.06 l 0,96.3 c 0,30.9 -25.1,55.99 -56,55.99 z m -14.6,-152.29 0,96.3 c 0,7.85 6.7,14.5 14.6,14.5 l 106.5,0 c 7.9,0 14.5,-6.65 14.5,-14.5 l 0,-96.3 c 0,-7.99 -6.6,-14.61 -14.5,-14.61 l -106.5,0 c -7.9,0 -14.6,6.62 -14.6,14.61 z m 244.7,152.29 c -30.9,0 -56.1,-25.09 -56.1,-55.99 l 0,-96.3 c 0,-30.98 25.2,-56.06 56.1,-56.06 l 106.5,0 c 30.9,0 56,25.08 56,56.06 l 0,96.3 c 0,30.9 -25.1,55.99 -56,55.99 z m -14.6,-152.29 0,96.3 c 0,7.85 6.6,14.5 14.6,14.5 l 106.5,0 c 7.9,0 14.5,-6.65 14.5,-14.5 l 0,-96.3 c 0,-7.99 -6.6,-14.61 -14.5,-14.61 l -106.5,0 c -8,0 -14.6,6.62 -14.6,14.61 z m 244.6,152.29 c -30.9,0 -56.1,-25.09 -56.1,-55.99 l 0,-96.3 c 0,-30.98 25.2,-56.06 56.1,-56.06 l 106.6,0 c 30.9,0 56,25.08 56,56.06 l 0,96.3 c 0,30.9 -25.1,55.99 -56,55.99 z m -14.6,-152.29 0,96.3 c 0,7.85 6.7,14.5 14.6,14.5 l 106.6,0 c 7.9,0 14.5,-6.65 14.5,-14.5 l 0,-96.3 c 0,-7.99 -6.6,-14.61 -14.5,-14.61 l -106.6,0 c -7.9,0 -14.6,6.62 -14.6,14.61 z M 9327.56,4289.57 c -30.9,0 -56.02,-25.16 -56.02,-56.07 l 0,-96.37 c 0,-30.83 25.12,-56 56.02,-56 l 106.53,0 c 30.91,0 55.99,25.17 55.99,56 l 0,96.37 c 0,30.91 -25.08,56.07 -55.99,56.07 z m -14.58,-152.44 0,96.37 c 0,7.93 6.67,14.57 14.58,14.57 l 106.53,0 c 7.93,0 14.55,-6.64 14.55,-14.57 l 0,-96.37 c 0,-7.84 -6.62,-14.5 -14.55,-14.5 l -106.53,0 c -7.91,0 -14.58,6.66 -14.58,14.5 z m 244.6,152.44 c -30.9,0 -56.07,-25.16 -56.07,-56.07 l 0,-96.37 c 0,-30.83 25.17,-56 56.07,-56 l 106.6,0 c 30.9,0 56.03,25.17 56.03,56 l 0,96.37 c 0,30.91 -25.13,56.07 -56.03,56.07 z m -14.58,-152.44 0,96.37 c 0,7.93 6.66,14.57 14.58,14.57 l 106.6,0 c 7.91,0 14.53,-6.64 14.53,-14.57 l 0,-96.37 c 0,-7.84 -6.62,-14.5 -14.53,-14.5 l -106.6,0 c -7.92,0 -14.58,6.66 -14.58,14.5 z m 244.66,152.44 c -30.9,0 -56.02,-25.16 -56.02,-56.07 l 0,-96.37 c 0,-30.83 25.12,-56 56.02,-56 l 106.52,0 c 30.92,0 56,25.17 56,56 l 0,96.37 c 0,30.91 -25.08,56.07 -56,56.07 z m -14.57,-152.44 0,96.37 c 0,7.93 6.65,14.57 14.57,14.57 l 106.52,0 c 7.93,0 14.55,-6.64 14.55,-14.57 l 0,-96.37 c 0,-7.84 -6.62,-14.5 -14.55,-14.5 l -106.52,0 c -7.92,0 -14.57,6.66 -14.57,14.5 z m 244.61,152.44 c -30.94,0 -56.09,-25.16 -56.09,-56.07 l 0,-96.37 c 0,-30.83 25.15,-56 56.09,-56 l 106.5,0 c 30.9,0 56,25.17 56,56 l 0,96.37 c 0,30.91 -25.1,56.07 -56,56.07 z m -14.6,-152.44 0,96.37 c 0,7.93 6.7,14.57 14.6,14.57 l 106.5,0 c 7.9,0 14.5,-6.64 14.5,-14.57 l 0,-96.37 c 0,-7.84 -6.6,-14.5 -14.5,-14.5 l -106.5,0 c -7.9,0 -14.6,6.66 -14.6,14.5 z m -675.54,-103.68 c -30.9,0 -56.02,-25.13 -56.02,-55.97 l 0,-96.36 c 0,-30.94 25.12,-56.07 56.02,-56.07 l 106.53,0 c 30.91,0 55.99,25.13 55.99,56.07 l 0,96.36 c 0,30.84 -25.08,55.97 -55.99,55.97 z m -14.58,-152.33 0,96.36 c 0,7.85 6.67,14.47 14.58,14.47 l 106.53,0 c 7.93,0 14.55,-6.62 14.55,-14.47 l 0,-96.36 c 0,-7.92 -6.62,-14.58 -14.55,-14.58 l -106.53,0 c -7.91,0 -14.58,6.66 -14.58,14.58 z m 244.6,152.33 c -30.9,0 -56.07,-25.13 -56.07,-55.97 l 0,-96.36 c 0,-30.94 25.17,-56.07 56.07,-56.07 l 106.6,0 c 30.9,0 56.03,25.13 56.03,56.07 l 0,96.36 c 0,30.84 -25.13,55.97 -56.03,55.97 z m -14.58,-152.33 0,96.36 c 0,7.85 6.66,14.47 14.58,14.47 l 106.6,0 c 7.91,0 14.53,-6.62 14.53,-14.47 l 0,-96.36 c 0,-7.92 -6.62,-14.58 -14.53,-14.58 l -106.6,0 c -7.92,0 -14.58,6.66 -14.58,14.58 z m 244.66,152.33 c -30.9,0 -56.02,-25.13 -56.02,-55.97 l 0,-96.36 c 0,-30.94 25.12,-56.07 56.02,-56.07 l 106.52,0 c 30.92,0 56,25.13 56,56.07 l 0,96.36 c 0,30.84 -25.08,55.97 -56,55.97 z m -14.57,-152.33 0,96.36 c 0,7.85 6.65,14.47 14.57,14.47 l 106.52,0 c 7.93,0 14.55,-6.62 14.55,-14.47 l 0,-96.36 c 0,-7.92 -6.62,-14.58 -14.55,-14.58 l -106.52,0 c -7.92,0 -14.57,6.66 -14.57,14.58 z m 244.61,152.33 c -30.94,0 -56.09,-25.13 -56.09,-55.97 l 0,-96.36 c 0,-30.94 25.15,-56.07 56.09,-56.07 l 106.5,0 c 30.9,0 56,25.13 56,56.07 l 0,96.36 c 0,30.84 -25.1,55.97 -56,55.97 z m -14.6,-152.33 0,96.36 c 0,7.85 6.7,14.47 14.6,14.47 l 106.5,0 c 7.9,0 14.5,-6.62 14.5,-14.47 l 0,-96.36 c 0,-7.92 -6.6,-14.58 -14.5,-14.58 l -106.5,0 c -7.9,0 -14.6,6.66 -14.6,14.58 z m 244.7,152.33 c -30.9,0 -56.1,-25.13 -56.1,-55.97 l 0,-96.36 c 0,-30.94 25.2,-56.07 56.1,-56.07 l 106.5,0 c 30.9,0 56,25.13 56,56.07 l 0,96.36 c 0,30.84 -25.1,55.97 -56,55.97 z m -14.6,-152.33 0,96.36 c 0,7.85 6.6,14.47 14.6,14.47 l 106.5,0 c 7.9,0 14.5,-6.62 14.5,-14.47 l 0,-96.36 c 0,-7.92 -6.6,-14.58 -14.5,-14.58 l -106.5,0 c -8,0 -14.6,6.66 -14.6,14.58 z m 14.5,408.45 c -30.8,0 -56,-25.16 -56,-56.07 l 0,-96.37 c 0,-30.83 25.2,-56 56,-56 0,0 140.9,0 174,0 0,-34.06 0,-200.01 0,-200.01 0,-30.94 25.2,-56.07 56.1,-56.07 l 106.5,0 c 30.9,0 56.1,25.13 56.1,56.07 l 0,352.38 c 0,30.91 -25.2,56.07 -56.1,56.07 z m -14.5,-152.44 0,96.37 c 0,7.93 6.6,14.57 14.5,14.57 l 336.6,0 c 8.1,0 14.6,-6.59 14.6,-14.57 l 0,-352.38 c 0,-7.98 -6.5,-14.58 -14.6,-14.58 l -106.5,0 c -8.1,0 -14.6,6.6 -14.6,14.58 l 0,241.51 -215.5,0 c -7.9,0 -14.5,6.66 -14.5,14.5 z m -905.64,-359.7 c -30.9,0 -56.02,-25.13 -56.02,-56.06 l 0,-96.33 c 0,-30.87 25.12,-56.01 56.02,-56.01 l 106.53,0 c 30.91,0 55.99,25.14 55.99,56.01 l 0,96.33 c 0,30.93 -25.08,56.06 -55.99,56.06 z m -14.58,-152.39 0,96.33 c 0,7.95 6.67,14.57 14.58,14.57 l 106.53,0 c 7.93,0 14.55,-6.62 14.55,-14.57 l 0,-96.33 c 0,-7.85 -6.62,-14.51 -14.55,-14.51 l -106.53,0 c -7.91,0 -14.58,6.66 -14.58,14.51 z m 244.6,152.39 c -30.9,0 -56.07,-25.13 -56.07,-56.06 l 0,-96.33 c 0,-30.87 25.17,-56.01 56.07,-56.01 l 796.72,0 c 30.9,0 56,25.14 56,56.01 l 0,96.33 c 0,30.93 -25.1,56.06 -56,56.06 z m -14.58,-152.39 0,96.33 c 0,7.95 6.66,14.57 14.58,14.57 l 796.72,0 c 7.9,0 14.5,-6.62 14.5,-14.57 l 0,-96.33 c 0,-7.85 -6.6,-14.51 -14.5,-14.51 l -796.72,0 c -7.92,0 -14.58,6.66 -14.58,14.51 z m 934.8,152.39 c -30.9,0 -56.1,-25.13 -56.1,-56.06 l 0,-96.33 c 0,-30.87 25.2,-56.01 56.1,-56.01 l 106.6,0 c 30.9,0 56,25.14 56,56.01 l 0,96.33 c 0,30.93 -25.1,56.06 -56,56.06 z m -14.6,-152.39 0,96.33 c 0,7.95 6.7,14.57 14.6,14.57 l 106.6,0 c 7.9,0 14.5,-6.62 14.5,-14.57 l 0,-96.33 c 0,-7.85 -6.6,-14.51 -14.5,-14.51 l -106.6,0 c -7.9,0 -14.6,6.66 -14.6,14.51 z m 396.4,664.53 c -30.9,0 -56,-25.16 -56,-56.07 l 0,-96.37 c 0,-30.83 25.1,-56 56,-56 l 106.6,0 c 30.9,0 56.1,25.17 56.1,56 l 0,96.37 c 0,30.91 -25.2,56.07 -56.1,56.07 z m -14.6,-152.44 0,96.37 c 0,7.93 6.7,14.57 14.6,14.57 l 106.6,0 c 7.9,0 14.6,-6.64 14.6,-14.57 l 0,-96.37 c 0,-7.84 -6.7,-14.5 -14.6,-14.5 l -106.6,0 c -7.9,0 -14.6,6.66 -14.6,14.5 z m 244.7,152.44 c -30.9,0 -56,-25.16 -56,-56.07 l 0,-96.37 c 0,-30.83 25.1,-56 56,-56 l 106.5,0 c 30.9,0 56.1,25.17 56.1,56 l 0,96.37 c 0,30.91 -25.2,56.07 -56.1,56.07 z m -14.6,-152.44 0,96.37 c 0,7.93 6.7,14.57 14.6,14.57 l 106.5,0 c 7.9,0 14.6,-6.64 14.6,-14.57 l 0,-96.37 c 0,-7.84 -6.7,-14.5 -14.6,-14.5 l -106.5,0 c -7.9,0 -14.6,6.66 -14.6,14.5 z m 244.7,152.44 c -31,0 -56,-25.16 -56,-56.07 l 0,-96.37 c 0,-30.83 25,-56 56,-56 l 106.5,0 c 30.9,0 56,25.17 56,56 l 0,96.37 c 0,30.91 -25.1,56.07 -56,56.07 z m -14.6,-152.44 0,96.37 c 0,7.93 6.7,14.57 14.6,14.57 l 106.5,0 c 7.9,0 14.6,-6.64 14.6,-14.57 l 0,-96.37 c 0,-7.84 -6.7,-14.5 -14.6,-14.5 l -106.5,0 c -7.9,0 -14.6,6.66 -14.6,14.5 z m -445.6,-103.68 c -30.9,0 -56,-25.13 -56,-55.97 l 0,-96.36 c 0,-30.94 25.1,-56.07 56,-56.07 l 106.6,0 c 30.9,0 56.1,25.13 56.1,56.07 l 0,96.36 c 0,30.84 -25.2,55.97 -56.1,55.97 z m -14.6,-152.33 0,96.36 c 0,7.85 6.7,14.47 14.6,14.47 l 106.6,0 c 7.9,0 14.6,-6.62 14.6,-14.47 l 0,-96.36 c 0,-7.92 -6.7,-14.58 -14.6,-14.58 l -106.6,0 c -7.9,0 -14.6,6.66 -14.6,14.58 z m 244.7,152.33 c -30.9,0 -56,-25.13 -56,-55.97 l 0,-96.36 c 0,-30.94 25.1,-56.07 56,-56.07 l 106.5,0 c 30.9,0 56.1,25.13 56.1,56.07 l 0,96.36 c 0,30.84 -25.2,55.97 -56.1,55.97 z m -14.6,-152.33 0,96.36 c 0,7.85 6.7,14.47 14.6,14.47 l 106.5,0 c 7.9,0 14.6,-6.62 14.6,-14.47 l 0,-96.36 c 0,-7.92 -6.7,-14.58 -14.6,-14.58 l -106.5,0 c -7.9,0 -14.6,6.66 -14.6,14.58 z m -215.5,-103.69 c -30.9,0 -56,-25.13 -56,-56.06 l 0,-96.33 c 0,-30.87 25.1,-56.01 56,-56.01 l 106.6,0 c 30.9,0 56.1,25.14 56.1,56.01 l 0,96.33 c 0,30.93 -25.2,56.06 -56.1,56.06 z m -14.6,-152.39 0,96.33 c 0,7.95 6.7,14.57 14.6,14.57 l 106.6,0 c 7.9,0 14.6,-6.62 14.6,-14.57 l 0,-96.33 c 0,-7.85 -6.7,-14.51 -14.6,-14.51 l -106.6,0 c -7.9,0 -14.6,6.66 -14.6,14.51 z m 244.7,152.39 c -30.9,0 -56,-25.13 -56,-56.06 l 0,-96.33 c 0,-30.87 25.1,-56.01 56,-56.01 l 106.5,0 c 30.9,0 56.1,25.14 56.1,56.01 l 0,96.33 c 0,30.93 -25.2,56.06 -56.1,56.06 z m -14.6,-152.39 0,96.33 c 0,7.95 6.7,14.57 14.6,14.57 l 106.5,0 c 7.9,0 14.6,-6.62 14.6,-14.57 l 0,-96.33 c 0,-7.85 -6.7,-14.51 -14.6,-14.51 l -106.5,0 c -7.9,0 -14.6,6.66 -14.6,14.51 z m 244.6,408.41 c -30.9,0 -55.9,-25.13 -55.9,-55.97 l 0,-352.44 c 0,-30.87 25,-56.01 55.9,-56.01 l 106.6,0 c 30.9,0 56,25.14 56,56.01 l 0,352.44 c 0,30.84 -25.1,55.97 -56,55.97 z m -14.5,-408.41 0,352.44 c 0,7.85 6.7,14.47 14.5,14.47 l 106.6,0 c 8,0 14.6,-6.48 14.6,-14.47 l 0,-352.44 c 0,-8.03 -6.6,-14.51 -14.6,-14.51 l -106.6,0 c -7.8,0 -14.5,6.66 -14.5,14.51"
         inkscape:connector-curvature="0" /></clipPath><clipPath
       id="clipPath11624"
       clipPathUnits="userSpaceOnUse"><path
         id="path11622"
         d="m 9469.38,4478.09 c 0,-19.48 -15.88,-35.32 -35.29,-35.32 l -106.53,0 c -19.41,0 -35.32,15.84 -35.32,35.32 l 0,96.3 c 0,19.37 15.91,35.25 35.32,35.25 l 106.53,0 c 19.41,0 35.29,-15.88 35.29,-35.25 l 0,-96.3"
         inkscape:connector-curvature="0" /></clipPath><clipPath
       id="clipPath11780"
       clipPathUnits="userSpaceOnUse"><path
         id="path11778"
         d="m 9699.47,4478.09 c 0,-19.48 -15.88,-35.32 -35.29,-35.32 l -106.6,0 c -19.41,0 -35.33,15.84 -35.33,35.32 l 0,96.3 c 0,19.37 15.92,35.25 35.33,35.25 l 106.6,0 c 19.41,0 35.29,-15.88 35.29,-35.25 l 0,-96.3"
         inkscape:connector-curvature="0" /></clipPath><clipPath
       id="clipPath11936"
       clipPathUnits="userSpaceOnUse"><path
         id="path11934"
         d="m 9929.47,4478.09 c 0,-19.48 -15.87,-35.32 -35.29,-35.32 l -106.52,0 c -19.4,0 -35.32,15.84 -35.32,35.32 l 0,96.3 c 0,19.37 15.92,35.25 35.32,35.25 l 106.52,0 c 19.42,0 35.29,-15.88 35.29,-35.25 l 0,-96.3"
         inkscape:connector-curvature="0" /></clipPath><clipPath
       id="clipPath12092"
       clipPathUnits="userSpaceOnUse"><path
         id="path12090"
         d="m 10159.4,4478.09 c 0,-19.48 -15.8,-35.32 -35.2,-35.32 l -106.5,0 c -19.44,0 -35.35,15.84 -35.35,35.32 l 0,96.3 c 0,19.37 15.91,35.25 35.35,35.25 l 106.5,0 c 19.4,0 35.2,-15.88 35.2,-35.25 l 0,-96.3"
         inkscape:connector-curvature="0" /></clipPath><clipPath
       id="clipPath12248"
       clipPathUnits="userSpaceOnUse"><path
         id="path12246"
         d="m 10389.6,4478.09 c 0,-19.48 -15.9,-35.32 -35.3,-35.32 l -106.5,0 c -19.5,0 -35.4,15.84 -35.4,35.32 l 0,96.3 c 0,19.37 15.9,35.25 35.4,35.25 l 106.5,0 c 19.4,0 35.3,-15.88 35.3,-35.25 l 0,-96.3"
         inkscape:connector-curvature="0" /></clipPath><clipPath
       id="clipPath12404"
       clipPathUnits="userSpaceOnUse"><path
         id="path12402"
         d="m 10619.7,4478.09 c 0,-19.48 -15.9,-35.32 -35.3,-35.32 l -106.6,0 c -19.4,0 -35.4,15.84 -35.4,35.32 l 0,96.3 c 0,19.37 16,35.25 35.4,35.25 l 106.6,0 c 19.4,0 35.3,-15.88 35.3,-35.25 l 0,-96.3"
         inkscape:connector-curvature="0" /></clipPath><clipPath
       id="clipPath12560"
       clipPathUnits="userSpaceOnUse"><path
         id="path12558"
         d="m 9469.38,4137.13 c 0,-19.34 -15.88,-35.24 -35.29,-35.24 l -106.53,0 c -19.41,0 -35.32,15.9 -35.32,35.24 l 0,96.37 c 0,19.41 15.91,35.33 35.32,35.33 l 106.53,0 c 19.41,0 35.29,-15.92 35.29,-35.33 l 0,-96.37"
         inkscape:connector-curvature="0" /></clipPath><clipPath
       id="clipPath12716"
       clipPathUnits="userSpaceOnUse"><path
         id="path12714"
         d="m 9699.47,4137.13 c 0,-19.34 -15.88,-35.24 -35.29,-35.24 l -106.6,0 c -19.41,0 -35.33,15.9 -35.33,35.24 l 0,96.37 c 0,19.41 15.92,35.33 35.33,35.33 l 106.6,0 c 19.41,0 35.29,-15.92 35.29,-35.33 l 0,-96.37"
         inkscape:connector-curvature="0" /></clipPath><clipPath
       id="clipPath12872"
       clipPathUnits="userSpaceOnUse"><path
         id="path12870"
         d="m 9929.47,4137.13 c 0,-19.34 -15.87,-35.24 -35.29,-35.24 l -106.52,0 c -19.4,0 -35.32,15.9 -35.32,35.24 l 0,96.37 c 0,19.41 15.92,35.33 35.32,35.33 l 106.52,0 c 19.42,0 35.29,-15.92 35.29,-35.33 l 0,-96.37"
         inkscape:connector-curvature="0" /></clipPath><clipPath
       id="clipPath13028"
       clipPathUnits="userSpaceOnUse"><path
         id="path13026"
         d="m 10159.4,4137.13 c 0,-19.34 -15.8,-35.24 -35.2,-35.24 l -106.5,0 c -19.44,0 -35.35,15.9 -35.35,35.24 l 0,96.37 c 0,19.41 15.91,35.33 35.35,35.33 l 106.5,0 c 19.4,0 35.2,-15.92 35.2,-35.33 l 0,-96.37"
         inkscape:connector-curvature="0" /></clipPath><clipPath
       id="clipPath13184"
       clipPathUnits="userSpaceOnUse"><path
         id="path13182"
         d="m 9469.38,3881.12 c 0,-19.42 -15.88,-35.32 -35.29,-35.32 l -106.53,0 c -19.41,0 -35.32,15.9 -35.32,35.32 l 0,96.36 c 0,19.34 15.91,35.22 35.32,35.22 l 106.53,0 c 19.41,0 35.29,-15.88 35.29,-35.22 l 0,-96.36"
         inkscape:connector-curvature="0" /></clipPath><clipPath
       id="clipPath13340"
       clipPathUnits="userSpaceOnUse"><path
         id="path13338"
         d="m 9699.47,3881.12 c 0,-19.42 -15.88,-35.32 -35.29,-35.32 l -106.6,0 c -19.41,0 -35.33,15.9 -35.33,35.32 l 0,96.36 c 0,19.34 15.92,35.22 35.33,35.22 l 106.6,0 c 19.41,0 35.29,-15.88 35.29,-35.22 l 0,-96.36"
         inkscape:connector-curvature="0" /></clipPath><clipPath
       id="clipPath13496"
       clipPathUnits="userSpaceOnUse"><path
         id="path13494"
         d="m 9929.47,3881.12 c 0,-19.42 -15.87,-35.32 -35.29,-35.32 l -106.52,0 c -19.4,0 -35.32,15.9 -35.32,35.32 l 0,96.36 c 0,19.34 15.92,35.22 35.32,35.22 l 106.52,0 c 19.42,0 35.29,-15.88 35.29,-35.22 l 0,-96.36"
         inkscape:connector-curvature="0" /></clipPath><clipPath
       id="clipPath13652"
       clipPathUnits="userSpaceOnUse"><path
         id="path13650"
         d="m 10159.4,3881.12 c 0,-19.42 -15.8,-35.32 -35.2,-35.32 l -106.5,0 c -19.44,0 -35.35,15.9 -35.35,35.32 l 0,96.36 c 0,19.34 15.91,35.22 35.35,35.22 l 106.5,0 c 19.4,0 35.2,-15.88 35.2,-35.22 l 0,-96.36"
         inkscape:connector-curvature="0" /></clipPath><clipPath
       id="clipPath13808"
       clipPathUnits="userSpaceOnUse"><path
         id="path13806"
         d="m 10389.6,3881.12 c 0,-19.42 -15.9,-35.32 -35.3,-35.32 l -106.5,0 c -19.5,0 -35.4,15.9 -35.4,35.32 l 0,96.36 c 0,19.34 15.9,35.22 35.4,35.22 l 106.5,0 c 19.4,0 35.3,-15.88 35.3,-35.22 l 0,-96.36"
         inkscape:connector-curvature="0" /></clipPath><clipPath
       id="clipPath13964"
       clipPathUnits="userSpaceOnUse"><path
         id="path13962"
         d="m 10584.3,4268.83 -336.6,0 c -19.4,0 -35.3,-15.92 -35.3,-35.33 l 0,-96.37 c 0,-19.34 15.9,-35.24 35.3,-35.24 l 194.7,0 0,-220.77 c 0,-19.42 16,-35.32 35.4,-35.32 l 106.5,0 c 19.5,0 35.4,15.9 35.4,35.32 l 0,352.38 c 0,19.41 -15.9,35.33 -35.4,35.33"
         inkscape:connector-curvature="0" /></clipPath><clipPath
       id="clipPath14120"
       clipPathUnits="userSpaceOnUse"><path
         id="path14118"
         d="m 9469.38,3625.04 c 0,-19.36 -15.88,-35.26 -35.29,-35.26 l -106.53,0 c -19.41,0 -35.32,15.9 -35.32,35.26 l 0,96.33 c 0,19.44 15.91,35.32 35.32,35.32 l 106.53,0 c 19.41,0 35.29,-15.88 35.29,-35.32 l 0,-96.33"
         inkscape:connector-curvature="0" /></clipPath><clipPath
       id="clipPath14276"
       clipPathUnits="userSpaceOnUse"><path
         id="path14274"
         d="m 10354.3,3756.69 -796.72,0 c -19.41,0 -35.33,-15.88 -35.33,-35.32 l 0,-96.33 c 0,-19.36 15.92,-35.26 35.33,-35.26 l 796.72,0 c 19.4,0 35.3,15.9 35.3,35.26 l 0,96.33 c 0,19.44 -15.9,35.32 -35.3,35.32"
         inkscape:connector-curvature="0" /></clipPath><clipPath
       id="clipPath14432"
       clipPathUnits="userSpaceOnUse"><path
         id="path14430"
         d="m 10619.7,3625.04 c 0,-19.36 -15.9,-35.26 -35.3,-35.26 l -106.6,0 c -19.4,0 -35.4,15.9 -35.4,35.26 l 0,96.33 c 0,19.44 16,35.32 35.4,35.32 l 106.6,0 c 19.4,0 35.3,-15.88 35.3,-35.32 l 0,-96.33"
         inkscape:connector-curvature="0" /></clipPath><clipPath
       id="clipPath14588"
       clipPathUnits="userSpaceOnUse"><path
         id="path14586"
         d="m 11001.5,4137.13 c 0,-19.34 -15.9,-35.24 -35.3,-35.24 l -106.6,0 c -19.4,0 -35.3,15.9 -35.3,35.24 l 0,96.37 c 0,19.41 15.9,35.33 35.3,35.33 l 106.6,0 c 19.4,0 35.3,-15.92 35.3,-35.33 l 0,-96.37"
         inkscape:connector-curvature="0" /></clipPath><clipPath
       id="clipPath14744"
       clipPathUnits="userSpaceOnUse"><path
         id="path14742"
         d="m 11231.5,4137.13 c 0,-19.34 -15.9,-35.24 -35.3,-35.24 l -106.5,0 c -19.4,0 -35.3,15.9 -35.3,35.24 l 0,96.37 c 0,19.41 15.9,35.33 35.3,35.33 l 106.5,0 c 19.4,0 35.3,-15.92 35.3,-35.33 l 0,-96.37"
         inkscape:connector-curvature="0" /></clipPath><clipPath
       id="clipPath14900"
       clipPathUnits="userSpaceOnUse"><path
         id="path14898"
         d="m 11461.6,4137.13 c 0,-19.34 -15.9,-35.24 -35.3,-35.24 l -106.5,0 c -19.5,0 -35.3,15.9 -35.3,35.24 l 0,96.37 c 0,19.41 15.8,35.33 35.3,35.33 l 106.5,0 c 19.4,0 35.3,-15.92 35.3,-35.33 l 0,-96.37"
         inkscape:connector-curvature="0" /></clipPath><clipPath
       id="clipPath15056"
       clipPathUnits="userSpaceOnUse"><path
         id="path15054"
         d="m 11001.5,3881.12 c 0,-19.42 -15.9,-35.32 -35.3,-35.32 l -106.6,0 c -19.4,0 -35.3,15.9 -35.3,35.32 l 0,96.36 c 0,19.34 15.9,35.22 35.3,35.22 l 106.6,0 c 19.4,0 35.3,-15.88 35.3,-35.22 l 0,-96.36"
         inkscape:connector-curvature="0" /></clipPath><clipPath
       id="clipPath15212"
       clipPathUnits="userSpaceOnUse"><path
         id="path15210"
         d="m 11231.5,3881.12 c 0,-19.42 -15.9,-35.32 -35.3,-35.32 l -106.5,0 c -19.4,0 -35.3,15.9 -35.3,35.32 l 0,96.36 c 0,19.34 15.9,35.22 35.3,35.22 l 106.5,0 c 19.4,0 35.3,-15.88 35.3,-35.22 l 0,-96.36"
         inkscape:connector-curvature="0" /></clipPath><clipPath
       id="clipPath15368"
       clipPathUnits="userSpaceOnUse"><path
         id="path15366"
         d="m 11001.5,3625.04 c 0,-19.36 -15.9,-35.26 -35.3,-35.26 l -106.6,0 c -19.4,0 -35.3,15.9 -35.3,35.26 l 0,96.33 c 0,19.44 15.9,35.32 35.3,35.32 l 106.6,0 c 19.4,0 35.3,-15.88 35.3,-35.32 l 0,-96.33"
         inkscape:connector-curvature="0" /></clipPath><clipPath
       id="clipPath15524"
       clipPathUnits="userSpaceOnUse"><path
         id="path15522"
         d="m 11231.5,3625.04 c 0,-19.36 -15.9,-35.26 -35.3,-35.26 l -106.5,0 c -19.4,0 -35.3,15.9 -35.3,35.26 l 0,96.33 c 0,19.44 15.9,35.32 35.3,35.32 l 106.5,0 c 19.4,0 35.3,-15.88 35.3,-35.32 l 0,-96.33"
         inkscape:connector-curvature="0" /></clipPath><clipPath
       id="clipPath15680"
       clipPathUnits="userSpaceOnUse"><path
         id="path15678"
         d="m 11426.3,4012.7 -106.6,0 c -19.4,0 -35.2,-15.88 -35.2,-35.22 l 0,-352.44 c 0,-19.36 15.8,-35.26 35.2,-35.26 l 106.6,0 c 19.4,0 35.3,15.9 35.3,35.26 l 0,352.44 c 0,19.34 -15.9,35.22 -35.3,35.22"
         inkscape:connector-curvature="0" /></clipPath><clipPath
       id="clipPath15836"
       clipPathUnits="userSpaceOnUse"><path
         id="path15834"
         d="m 10865.4,4609.64 c -30.9,0 -56,-25.09 -56,-56 l 0,-96.3 c 0,-30.97 25.1,-56.06 56,-56.06 l 566.7,0 c 30.9,0 56.1,25.09 56.1,56.06 l 0,96.3 c 0,30.91 -25.2,56 -56.1,56 l -566.7,0"
         inkscape:connector-curvature="0" /></clipPath><clipPath
       id="clipPath15932"
       clipPathUnits="userSpaceOnUse"><path
         id="path15930"
         d="m 10943.5,4505.45 c 0,-15.72 -12.7,-28.49 -28.5,-28.49 -15.8,0 -28.6,12.77 -28.6,28.49 0,15.81 12.8,28.6 28.6,28.6 15.8,0 28.5,-12.79 28.5,-28.6"
         inkscape:connector-curvature="0" /></clipPath><clipPath
       id="clipPath16068"
       clipPathUnits="userSpaceOnUse"><path
         id="path16066"
         d="m 11411.1,4505.45 c 0,-15.72 -12.8,-28.49 -28.6,-28.49 -15.7,0 -28.5,12.77 -28.5,28.49 0,15.81 12.8,28.6 28.5,28.6 15.8,0 28.6,-12.79 28.6,-28.6"
         inkscape:connector-curvature="0" /></clipPath><clipPath
       id="clipPath16204"
       clipPathUnits="userSpaceOnUse"><path
         id="path16202"
         d="m 11171.2,4505.45 c 0,-15.72 -12.8,-28.49 -28.6,-28.49 -15.8,0 -28.5,12.77 -28.5,28.49 0,15.81 12.7,28.6 28.5,28.6 15.8,0 28.6,-12.79 28.6,-28.6"
         inkscape:connector-curvature="0" /></clipPath><clipPath
       id="clipPath16340"
       clipPathUnits="userSpaceOnUse"><path
         id="path16338"
         d="m 9866.32,2014.32 c 164.28,0 314.98,-59.32 431.88,-157.58 l 65.1,77.67 c -134.5,113.09 -307.9,181.38 -496.98,181.38 -189.07,0 -362.44,-68.29 -496.95,-181.34 l 65.2,-77.71 c 116.84,98.26 267.47,157.58 431.75,157.58"
         inkscape:connector-curvature="0" /></clipPath><clipPath
       id="clipPath17228"
       clipPathUnits="userSpaceOnUse"><path
         id="path17226"
         d="m 9866.32,1813.59 c 115.25,0 220.78,-41.7 302.78,-110.65 l 65.3,77.77 c -99.6,83.72 -228,134.27 -368.08,134.27 -139.98,0 -268.37,-50.55 -367.98,-134.27 l 65.25,-77.77 c 81.95,68.95 187.53,110.65 302.73,110.65"
         inkscape:connector-curvature="0" /></clipPath><clipPath
       id="clipPath18116"
       clipPathUnits="userSpaceOnUse"><path
         id="path18114"
         d="m 9866.32,1612.79 c 66.2,0 126.8,-23.92 173.88,-63.49 l 65.1,77.69 c -64.7,54.38 -148.01,87.25 -238.98,87.25 -90.93,0 -174.27,-32.87 -238.96,-87.25 l 65.16,-77.69 c 47.05,39.57 107.66,63.49 173.8,63.49"
         inkscape:connector-curvature="0" /></clipPath><clipPath
       id="clipPath19004"
       clipPathUnits="userSpaceOnUse"><path
         id="path19002"
         d="m 9847.82,1344.77 -18.49,-380.266 73.99,0 -18.51,380.266 -36.99,0"
         inkscape:connector-curvature="0" /></clipPath><clipPath
       id="clipPath19102"
       clipPathUnits="userSpaceOnUse"><path
         id="path19100"
         d="m 9937.68,1450.09 c 39.47,-39.43 39.47,-103.36 0.08,-142.79 -39.44,-39.43 -103.39,-39.43 -142.83,0 -39.4,39.43 -39.44,103.36 0,142.79 39.44,39.43 103.37,39.43 142.75,0"
         inkscape:connector-curvature="0" /></clipPath><clipPath
       id="clipPath19200"
       clipPathUnits="userSpaceOnUse"><path
         id="path19198"
         d="m 9970.27,964.785 c 57.33,-57.43 57.43,-150.437 0,-207.871 -57.36,-57.371 -150.48,-57.371 -207.84,0 -57.41,57.434 -57.45,150.441 0,207.871 57.36,57.365 150.45,57.365 207.84,0"
         inkscape:connector-curvature="0" /></clipPath><clipPath
       id="clipPath19298"
       clipPathUnits="userSpaceOnUse"><path
         id="path19296"
         d="m 11384.4,524.805 c 0,-116.367 -95.2,-211.571 -211.6,-211.571 l -1436.47,0 c -116.35,0 -211.56,95.204 -211.56,211.571 l 0,170.754 c 0,116.367 95.21,211.57 211.56,211.57 l 1436.47,0 c 116.4,0 211.6,-95.203 211.6,-211.57 l 0,-170.754"
         inkscape:connector-curvature="0" /></clipPath><clipPath
       id="clipPath19420"
       clipPathUnits="userSpaceOnUse"><path
         id="path19418"
         d="m 10575,610.176 c 0,-65.371 -53,-118.145 -118.3,-118.145 -65.2,0 -118.1,52.774 -118.1,118.145 0,65.39 52.9,118.164 118.1,118.164 65.3,0 118.3,-52.774 118.3,-118.164"
         inkscape:connector-curvature="0" /></clipPath><clipPath
       id="clipPath19542"
       clipPathUnits="userSpaceOnUse"><path
         id="path19540"
         d="m 10535.1,610.031 c 0,-43.156 -35.1,-78.136 -78.4,-78.136 -43.3,0 -78.2,34.98 -78.2,78.136 0,43.301 34.9,78.426 78.2,78.426 43.3,0 78.4,-35.125 78.4,-78.426"
         inkscape:connector-curvature="0" /></clipPath><clipPath
       id="clipPath19682"
       clipPathUnits="userSpaceOnUse"><path
         id="path19680"
         d="m 10896.2,610.176 c 0,-65.371 -52.9,-118.145 -118.2,-118.145 -65.2,0 -118.2,52.774 -118.2,118.145 0,65.39 53,118.164 118.2,118.164 65.3,0 118.2,-52.774 118.2,-118.164"
         inkscape:connector-curvature="0" /></clipPath><clipPath
       id="clipPath19804"
       clipPathUnits="userSpaceOnUse"><path
         id="path19802"
         d="m 10856.3,610.031 c 0,-43.156 -35,-78.136 -78.3,-78.136 -43.3,0 -78.2,34.98 -78.2,78.136 0,43.301 34.9,78.426 78.2,78.426 43.3,0 78.3,-35.125 78.3,-78.426"
         inkscape:connector-curvature="0" /></clipPath><clipPath
       id="clipPath19944"
       clipPathUnits="userSpaceOnUse"><path
         id="path19942"
         d="m 11217.5,610.176 c 0,-65.371 -53,-118.145 -118.2,-118.145 -65.3,0 -118.2,52.774 -118.2,118.145 0,65.39 52.9,118.164 118.2,118.164 65.2,0 118.2,-52.774 118.2,-118.164"
         inkscape:connector-curvature="0" /></clipPath><clipPath
       id="clipPath20066"
       clipPathUnits="userSpaceOnUse"><path
         id="path20064"
         d="m 11177.6,610.031 c 0,-43.156 -35,-78.136 -78.3,-78.136 -43.3,0 -78.3,34.98 -78.3,78.136 0,43.301 35,78.426 78.3,78.426 43.3,0 78.3,-35.125 78.3,-78.426"
         inkscape:connector-curvature="0" /></clipPath><clipPath
       id="clipPath20204"
       clipPathUnits="userSpaceOnUse"><path
         id="path20202"
         d="m 4469.71,9776.11 c 0,-27.97 -22.87,-50.86 -50.85,-50.86 l -247.72,0 c -27.97,0 -50.86,22.89 -50.86,50.86 l 0,1640.59 c 0,28 22.89,50.9 50.86,50.9 l 247.72,0 c 27.98,0 50.85,-22.9 50.85,-50.9 l 0,-1640.59"
         inkscape:connector-curvature="0" /></clipPath><clipPath
       id="clipPath20394"
       clipPathUnits="userSpaceOnUse"><path
         id="path20392"
         d="m 4652.08,9639.32 c 0,-27.98 -22.88,-50.86 -50.85,-50.86 l -612.38,0 c -27.97,0 -50.85,22.88 -50.85,50.86 l 0,1627.88 c 0,28 22.88,50.9 50.85,50.9 l 612.38,0 c 27.97,0 50.85,-22.9 50.85,-50.9 l 0,-1627.88"
         inkscape:connector-curvature="0" /></clipPath><clipPath
       id="clipPath20584"
       clipPathUnits="userSpaceOnUse"><path
         id="path20582"
         d="m 4120.28,11318.9 349.43,0 0,33.789 -349.43,0 z"
         inkscape:connector-curvature="0" /></clipPath><clipPath
       id="clipPath20930"
       clipPathUnits="userSpaceOnUse"><path
         id="path20928"
         d="m 4790.28,9535.74 c 0,-78.32 -64.08,-142.4 -142.4,-142.4 l -705.68,0 c -78.33,0 -142.41,64.08 -142.41,142.4 l 0,1609.56 c 0,78.3 64.08,142.4 142.41,142.4 l 705.68,0 c 78.32,0 142.4,-64.1 142.4,-142.4 l 0,-1609.56"
         inkscape:connector-curvature="0" /></clipPath><clipPath
       id="clipPath21016"
       clipPathUnits="userSpaceOnUse"><path
         id="path21014"
         d="m 4729.31,9593.84 c 0,-78.32 -64.08,-142.4 -142.4,-142.4 l -583.74,0 c -78.32,0 -142.4,64.08 -142.4,142.4 l 0,1493.36 c 0,78.3 64.08,142.4 142.4,142.4 l 583.74,0 c 78.32,0 142.4,-64.1 142.4,-142.4 l 0,-1493.36"
         inkscape:connector-curvature="0" /></clipPath><clipPath
       id="clipPath21210"
       clipPathUnits="userSpaceOnUse"><path
         id="path21208"
         d="m 3860.77,9617.19 0,-23.34 c 0,-78.36 64.05,-142.41 142.4,-142.41 l 583.73,0 c 78.28,0 142.41,64.05 142.41,142.41 l 0,23.34 -868.54,0"
         inkscape:connector-curvature="0" /></clipPath><clipPath
       id="clipPath22034"
       clipPathUnits="userSpaceOnUse"><path
         id="path22032"
         d="m 5014.91,2087.62 -539.91,0 c -98.96,0 -179.98,-81.02 -179.98,-180 l 0,-719.87 -719.9,0 c -98.96,0 -179.97,-80.97 -179.97,-179.96 l 0,-539.938 c 0,-98.954 81.01,-180 179.97,-180 l 1439.79,0 c 99.04,0 180.02,81.046 180.02,180 l 0,1439.768 c 0,98.98 -80.98,180 -180.02,180"
         inkscape:connector-curvature="0" /></clipPath><clipPath
       id="clipPath22168"
       clipPathUnits="userSpaceOnUse"><path
         id="path22166"
         d="m 4952.26,1997.64 -414.54,0 c -84.01,0 -152.72,-68.72 -152.72,-152.72 l 0,-747.15 -747.15,0 c -84,0 -152.72,-68.72 -152.72,-152.711 l 0,-414.551 c 0,-83.965 68.72,-152.676 152.72,-152.676 l 1314.41,0 c 83.95,0 152.65,68.711 152.65,152.676 l 0,1314.412 c 0,84 -68.7,152.72 -152.65,152.72"
         inkscape:connector-curvature="0" /></clipPath><clipPath
       id="clipPath22368"
       clipPathUnits="userSpaceOnUse"><path
         id="path22366"
         d="m 4740.86,1103.75 c -21.91,0 -39.68,-17.71 -39.68,-39.63 0,0 0,-208.249 0,-280.78 l -700.55,0 0,87.433 c 0,37.071 -23.43,48.145 -52.11,24.629 L 3815.39,786.348 c -28.62,-23.477 -28.62,-61.914 0,-85.391 l 133.13,-109.121 c 28.68,-23.516 52.11,-12.371 52.11,24.668 l 0,87.461 740.23,0 c 21.9,0 39.69,17.773 39.69,39.668 l 0,320.487 c 0,21.92 -17.79,39.63 -39.69,39.63"
         inkscape:connector-curvature="0" /></clipPath><clipPath
       id="clipPath22526"
       clipPathUnits="userSpaceOnUse"><path
         id="path22524"
         d="m 5442.58,7475.38 -173.87,0 c -41.19,0 -74.55,-33.33 -74.55,-74.47 0,-41.22 33.36,-74.55 74.55,-74.55 l 173.87,0.07 c 176.31,-0.07 319.83,-143.51 319.83,-319.85 0,-125.2 148.98,-85.39 149.06,0 0,258.54 -210.34,468.8 -468.89,468.8"
         inkscape:connector-curvature="0" /></clipPath><clipPath
       id="clipPath22872"
       clipPathUnits="userSpaceOnUse"><path
         id="path22870"
         d="m 4433.25,7399.86 c 0,-484.59 -392.75,-877.4 -877.33,-877.4 -484.49,0 -877.31,392.81 -877.31,877.4 0,484.53 392.82,877.33 877.31,877.33 484.58,0 877.33,-392.8 877.33,-877.33"
         inkscape:connector-curvature="0" /></clipPath><clipPath
       id="clipPath23222"
       clipPathUnits="userSpaceOnUse"><path
         id="path23220"
         d="m 4283.3,7890.54 c -94.05,-12.16 -169.14,-226.87 -169.14,-490.68 0,-263.88 75.09,-478.52 169.14,-490.75 94.67,140.09 149.95,308.96 149.95,490.75 0,181.79 -55.28,350.59 -149.95,490.68"
         inkscape:connector-curvature="0" /></clipPath><clipPath
       id="clipPath23354"
       clipPathUnits="userSpaceOnUse"><path
         id="path23352"
         d="m 4386.39,7574.25 c 0,-75.68 -29.73,-136.87 -66.43,-136.87 -36.75,0 -66.52,61.19 -66.52,136.87 0,75.53 29.77,136.86 66.52,136.86 36.7,0 66.43,-61.33 66.43,-136.86"
         inkscape:connector-curvature="0" /></clipPath><clipPath
       id="clipPath23486"
       clipPathUnits="userSpaceOnUse"><path
         id="path23484"
         d="m 4386.39,7223.16 c 0,-75.59 -29.73,-136.87 -66.43,-136.87 -36.75,0 -66.52,61.28 -66.52,136.87 0,75.53 29.77,136.87 66.52,136.87 36.7,0 66.43,-61.34 66.43,-136.87"
         inkscape:connector-curvature="0" /></clipPath><clipPath
       id="clipPath23618"
       clipPathUnits="userSpaceOnUse"><path
         id="path23616"
         d="m 4373.13,7574.25 c 0,-60.51 -23.79,-109.45 -53.17,-109.45 -29.42,0 -53.24,48.94 -53.24,109.45 0,60.48 23.82,109.48 53.24,109.48 29.38,0 53.17,-49 53.17,-109.48"
         inkscape:connector-curvature="0" /></clipPath><clipPath
       id="clipPath24002"
       clipPathUnits="userSpaceOnUse"><path
         id="path24000"
         d="m 4373.13,7223.16 c 0,-60.5 -23.79,-109.48 -53.17,-109.48 -29.42,0 -53.24,48.98 -53.24,109.48 0,60.45 23.82,109.48 53.24,109.48 29.38,0 53.17,-49.03 53.17,-109.48"
         inkscape:connector-curvature="0" /></clipPath><clipPath
       id="clipPath24386"
       clipPathUnits="userSpaceOnUse"><path
         id="path24384"
         d="m 4723.3,7661.37 -305.33,0 c -49.39,0 -89.41,-40.03 -89.41,-89.42 0,-49.41 40.02,-89.44 89.41,-89.44 l 305.33,0 c 49.4,0 89.44,40.03 89.44,89.44 0,49.39 -40.04,89.42 -89.44,89.42"
         inkscape:connector-curvature="0" /></clipPath><clipPath
       id="clipPath24680"
       clipPathUnits="userSpaceOnUse"><path
         id="path24678"
         d="m 4723.3,7317.06 -305.33,0 c -49.39,0 -89.41,-39.99 -89.41,-89.42 0,-49.4 40.02,-89.44 89.41,-89.44 l 305.33,0 c 49.4,0 89.44,40.04 89.44,89.44 0,49.43 -40.04,89.42 -89.44,89.42"
         inkscape:connector-curvature="0" /></clipPath><clipPath
       id="clipPath24974"
       clipPathUnits="userSpaceOnUse"><path
         id="path24972"
         d="m 5289.16,7399.79 c 0,233.22 -189.76,422.91 -422.91,422.91 l -97.75,0 c -92.08,0 -167.39,-75.32 -167.39,-167.41 l 0,-510.97 c 0,-92.11 75.31,-167.43 167.39,-167.43 l 97.75,0 c 233.15,0 422.91,189.79 422.91,422.9"
         inkscape:connector-curvature="0" /></clipPath><clipPath
       id="clipPath25106"
       clipPathUnits="userSpaceOnUse"><path
         id="path25104"
         d="m 4945.13,7321.78 c -43.11,0 -78.04,34.9 -78.04,78.01 0,43.11 34.93,78.04 78.04,78.04 43.11,0 78.04,-34.93 78.04,-78.04 0,-43.11 -34.93,-78.01 -78.04,-78.01"
         inkscape:connector-curvature="0" /></clipPath><clipPath
       id="clipPath25238"
       clipPathUnits="userSpaceOnUse"><path
         id="path25236"
         d="m 4945.13,7343.26 c -31.23,0 -56.52,25.29 -56.52,56.53 0,31.23 25.29,56.52 56.52,56.52 31.23,0 56.51,-25.29 56.51,-56.52 0,-31.24 -25.28,-56.53 -56.51,-56.53"
         inkscape:connector-curvature="0" /></clipPath><clipPath
       id="clipPath25444"
       clipPathUnits="userSpaceOnUse"><path
         id="path25442"
         d="m 5228.79,5197.59 -1867.5,0 c -102.84,0 -186.97,-84.13 -186.97,-186.95 l 0,-106.8 2241.43,0 0,106.8 c 0,102.82 -84.12,186.95 -186.96,186.95"
         inkscape:connector-curvature="0" /></clipPath><clipPath
       id="clipPath25610"
       clipPathUnits="userSpaceOnUse"><path
         id="path25608"
         d="m 4755.26,5050.71 c 0,-51.98 -42.13,-93.97 -94.01,-93.97 -51.89,0 -94.06,41.99 -94.06,93.97 0,51.99 42.17,94.02 94.06,94.02 51.88,0 94.01,-42.03 94.01,-94.02"
         inkscape:connector-curvature="0" /></clipPath><clipPath
       id="clipPath25804"
       clipPathUnits="userSpaceOnUse"><path
         id="path25802"
         d="m 5031.76,5050.71 c 0,-51.98 -42.1,-93.97 -93.97,-93.97 -51.89,0 -94.06,41.99 -94.06,93.97 0,51.99 42.17,94.02 94.06,94.02 51.87,0 93.97,-42.03 93.97,-94.02"
         inkscape:connector-curvature="0" /></clipPath><clipPath
       id="clipPath25998"
       clipPathUnits="userSpaceOnUse"><path
         id="path25996"
         d="m 4730.43,5050.59 c 0,-38.14 -30.91,-69.06 -69.18,-69.06 -38.27,0 -69.2,30.92 -69.2,69.06 0,38.26 30.93,69.34 69.2,69.34 38.27,0 69.18,-31.08 69.18,-69.34"
         inkscape:connector-curvature="0" /></clipPath><clipPath
       id="clipPath26168"
       clipPathUnits="userSpaceOnUse"><path
         id="path26166"
         d="m 5006.97,5050.59 c 0,-38.14 -30.93,-69.06 -69.18,-69.06 -38.27,0 -69.19,30.92 -69.19,69.06 0,38.26 30.92,69.34 69.19,69.34 38.25,0 69.18,-31.08 69.18,-69.34"
         inkscape:connector-curvature="0" /></clipPath><clipPath
       id="clipPath26280"
       clipPathUnits="userSpaceOnUse"><path
         id="path26278"
         d="m 5308.28,5050.71 c 0,-51.98 -42.14,-93.97 -94.02,-93.97 -51.89,0 -94.05,41.99 -94.05,93.97 0,51.99 42.16,94.02 94.05,94.02 51.88,0 94.02,-42.03 94.02,-94.02"
         inkscape:connector-curvature="0" /></clipPath><clipPath
       id="clipPath26474"
       clipPathUnits="userSpaceOnUse"><path
         id="path26472"
         d="m 5283.44,5050.59 c 0,-38.14 -30.92,-69.06 -69.18,-69.06 -38.26,0 -69.19,30.92 -69.19,69.06 0,38.26 30.93,69.34 69.19,69.34 38.26,0 69.18,-31.08 69.18,-69.34"
         inkscape:connector-curvature="0" /></clipPath><clipPath
       id="clipPath26604"
       clipPathUnits="userSpaceOnUse"><path
         id="path26602"
         d="m 3174.32,4465.85 2241.4,0 0,437.801 -2241.4,0 z"
         inkscape:connector-curvature="0" /></clipPath><clipPath
       id="clipPath26774"
       clipPathUnits="userSpaceOnUse"><path
         id="path26772"
         d="m 4125.54,4468.9 c 0,77.17 -63.11,140.24 -140.18,140.24 l -639.05,0 c -77.1,0 -140.15,-63.07 -140.15,-140.24 l 919.38,0"
         inkscape:connector-curvature="0" /></clipPath><clipPath
       id="clipPath26940"
       clipPathUnits="userSpaceOnUse"><path
         id="path26938"
         d="m 3223.79,4468.2 0,-1125.82 c 0,-70.65 61.68,-128.04 137.5,-128.04 l 1867.5,0 c 75.8,0 137.48,57.39 137.48,128.04 l 0,1125.82 z m 1702.31,140.94 -639.05,0 c -77.07,0 -140.2,-63.07 -140.2,-140.24 l 919.4,0 c 0,77.17 -63.04,140.24 -140.15,140.24"
         inkscape:connector-curvature="0" /></clipPath><clipPath
       id="clipPath27056"
       clipPathUnits="userSpaceOnUse"><path
         id="path27054"
         d="m 4968.23,4535.7 c 0,-25.06 -20.37,-45.28 -45.35,-45.28 -25.1,0 -45.42,20.22 -45.42,45.28 0,25.19 20.32,45.41 45.42,45.41 24.98,0 45.35,-20.22 45.35,-45.41"
         inkscape:connector-curvature="0" /></clipPath><clipPath
       id="clipPath27250"
       clipPathUnits="userSpaceOnUse"><path
         id="path27248"
         d="m 4956.23,4535.7 c 0,-18.34 -14.91,-33.3 -33.35,-33.3 -18.5,0 -33.44,14.96 -33.44,33.3 0,18.42 14.94,33.44 33.44,33.44 18.44,0 33.35,-15.02 33.35,-33.44"
         inkscape:connector-curvature="0" /></clipPath><clipPath
       id="clipPath27380"
       clipPathUnits="userSpaceOnUse"><path
         id="path27378"
         d="m 4027.49,4535.7 c 0,-25.06 -20.36,-45.28 -45.4,-45.28 -25.04,0 -45.37,20.22 -45.37,45.28 0,25.19 20.33,45.41 45.37,45.41 25.04,0 45.4,-20.22 45.4,-45.41"
         inkscape:connector-curvature="0" /></clipPath><clipPath
       id="clipPath27574"
       clipPathUnits="userSpaceOnUse"><path
         id="path27572"
         d="m 4015.5,4535.7 c 0,-18.34 -14.95,-33.3 -33.41,-33.3 -18.5,0 -33.38,14.96 -33.38,33.3 0,18.42 14.88,33.44 33.38,33.44 18.46,0 33.41,-15.02 33.41,-33.44"
         inkscape:connector-curvature="0" /></clipPath><clipPath
       id="clipPath27704"
       clipPathUnits="userSpaceOnUse"><path
         id="path27702"
         d="m 3294.21,4785.51 c -27.32,0 -49.48,-22.16 -49.48,-49.46 0,-27.32 22.16,-49.49 49.48,-49.49 l 1964.58,0 c 27.33,0 49.49,22.17 49.49,49.49 0,27.3 -22.16,49.46 -49.49,49.46 l -1964.58,0"
         inkscape:connector-curvature="0" /></clipPath><clipPath
       id="clipPath27838"
       clipPathUnits="userSpaceOnUse"><path
         id="path27836"
         d="m 1203.29,9785.39 c 0,-27.97 -22.9,-50.85 -50.86,-50.85 l -247.719,0 c -27.969,0 -50.859,22.88 -50.859,50.85 l 0,1640.61 c 0,28 22.89,50.9 50.859,50.9 l 247.719,0 c 27.96,0 50.86,-22.9 50.86,-50.9 l 0,-1640.61"
         inkscape:connector-curvature="0" /></clipPath><clipPath
       id="clipPath28028"
       clipPathUnits="userSpaceOnUse"><path
         id="path28026"
         d="m 1385.57,9648.59 c 0,-27.96 -22.88,-50.86 -50.86,-50.86 l -612.362,0 c -27.969,0 -50.86,22.9 -50.86,50.86 l 0,1627.91 c 0,28 22.891,50.9 50.86,50.9 l 612.362,0 c 27.98,0 50.86,-22.9 50.86,-50.9 l 0,-1627.91"
         inkscape:connector-curvature="0" /></clipPath><clipPath
       id="clipPath28218"
       clipPathUnits="userSpaceOnUse"><path
         id="path28216"
         d="m 853.852,11328.2 349.434,0 0,33.777 -349.434,0 z"
         inkscape:connector-curvature="0" /></clipPath><clipPath
       id="clipPath28564"
       clipPathUnits="userSpaceOnUse"><path
         id="path28562"
         d="m 1523.77,9545.03 c 0,-78.32 -64.07,-142.4 -142.4,-142.4 l -705.682,0 c -78.321,0 -142.391,64.08 -142.391,142.4 l 0,1609.57 c 0,78.3 64.07,142.4 142.391,142.4 l 705.682,0 c 78.33,0 142.4,-64.1 142.4,-142.4 l 0,-1609.57"
         inkscape:connector-curvature="0" /></clipPath><clipPath
       id="clipPath28650"
       clipPathUnits="userSpaceOnUse"><path
         id="path28648"
         d="m 1462.82,9603.13 c 0,-78.33 -64.09,-142.41 -142.41,-142.41 l -583.746,0 c -78.32,0 -142.402,64.08 -142.402,142.41 l 0,1493.37 c 0,78.3 64.082,142.4 142.402,142.4 l 583.746,0 c 78.32,0 142.41,-64.1 142.41,-142.4 l 0,-1493.37"
         inkscape:connector-curvature="0" /></clipPath><clipPath
       id="clipPath28844"
       clipPathUnits="userSpaceOnUse"><path
         id="path28842"
         d="m 881.52,8204.41 c -154.602,154.61 -386.868,184.04 -571.184,88.62 l 233.027,-232.99 c 57.891,-57.88 57.891,-151.73 0,-209.76 -57.949,-57.89 -151.863,-57.89 -209.754,0 L 100.648,8083.34 C 5.19922,7899.06 34.6328,7666.77 189.242,7512.13 323.871,7377.36 517.582,7338.12 687.172,7393.3 1046.35,7025.02 1431.39,6591.69 1562.66,6460.47 l -0.07,-0.08 c 103.3,-103.3 270.1,-104.14 372.41,-1.82 102.33,102.32 101.57,269.09 -1.81,372.43 l 0.07,0.09 -932.32,877.13 c 54.39,169.18 14.86,361.98 -119.42,496.19"
         inkscape:connector-curvature="0" /></clipPath><clipPath
       id="clipPath29112"
       clipPathUnits="userSpaceOnUse"><path
         id="path29110"
         d="m 1661.27,6732.32 c -49.41,-49.41 -49.41,-129.59 0,-179.14 49.48,-49.45 129.65,-49.45 179.12,0.04 49.56,49.51 49.49,129.69 0.08,179.14 -49.49,49.5 -129.72,49.44 -179.2,-0.04"
         inkscape:connector-curvature="0" /></clipPath><clipPath
       id="clipPath29362"
       clipPathUnits="userSpaceOnUse"><path
         id="path29360"
         d="m 941.02,7536.52 c -23.204,23.21 -60.762,23.21 -83.887,0 -23.203,-23.2 -23.203,-60.7 0,-83.88 l 589.117,-654.79 c 41.27,-41.29 108.29,-41.29 149.55,0 41.29,41.27 41.29,108.24 0.08,149.55 l -654.86,589.12"
         inkscape:connector-curvature="0" /></clipPath><clipPath
       id="clipPath29542"
       clipPathUnits="userSpaceOnUse"><path
         id="path29540"
         d="m 310.902,8292.51 232.461,-232.47 c 57.891,-57.88 57.891,-151.73 0,-209.76 -57.949,-57.89 -151.863,-57.89 -209.754,0 l -232.472,232.46 c -4.7659,-9.17 -9.5901,-18.31 -13.7307,-27.78 L 312.867,7829.53 c 69.305,-69.3 181.863,-69.37 251.25,0 69.383,69.45 69.383,181.91 0,251.29 l -225.39,225.42 c -9.465,-4.2 -18.645,-8.96 -27.825,-13.73"
         inkscape:connector-curvature="0" /></clipPath><clipPath
       id="clipPath29840"
       clipPathUnits="userSpaceOnUse"><path
         id="path29838"
         d="m 456.324,6914.39 -148.508,-31.28 -266.7379,-404.85 50.1758,-50.39 50.3321,-50.31 404.941,266.83 31.536,148.55 333.035,333.25 -121.387,121.59 -333.387,-333.39"
         inkscape:connector-curvature="0" /></clipPath><clipPath
       id="clipPath30108"
       clipPathUnits="userSpaceOnUse"><path
         id="path30106"
         d="m 1934.31,8270.86 c -108.78,108.9 -285.3,108.9 -394.07,0 L 833.578,7564.28 c -108.906,-108.77 -108.906,-285.32 0.078,-394.14 108.692,-108.92 285.094,-108.89 393.864,0 l 706.79,706.77 c 108.91,108.77 108.91,285.24 0,393.95"
         inkscape:connector-curvature="0" /></clipPath><clipPath
       id="clipPath30268"
       clipPathUnits="userSpaceOnUse"><path
         id="path30266"
         d="m 1899.83,8002.64 c -20.67,20.9 -53.89,20.9 -74.63,0.07 l -625.71,-625.63 c -20.89,-20.88 -20.95,-54.07 -0.07,-74.78 20.39,-20.66 54.1,-20.74 74.43,0 l 625.98,625.98 c 20.6,20.39 20.6,53.9 0,74.36"
         inkscape:connector-curvature="0" /></clipPath><clipPath
       id="clipPath30334"
       clipPathUnits="userSpaceOnUse"><path
         id="path30332"
         d="m 1849.65,8186.96 c -20.33,20.75 -54.04,20.75 -74.43,0 l -692.84,-692.77 c -20.89,-20.89 -20.89,-54.11 -0.07,-74.78 20.39,-20.71 54.1,-20.74 74.43,0 l 692.83,692.85 c 20.9,20.81 20.9,54.03 0.08,74.7"
         inkscape:connector-curvature="0" /></clipPath><clipPath
       id="clipPath30454"
       clipPathUnits="userSpaceOnUse"><path
         id="path30452"
         d="m 1665.39,8236.89 c -20.31,20.79 -54.02,20.79 -74.42,0 L 964.984,7610.91 c -20.527,-20.36 -20.527,-53.86 0,-74.39 20.684,-20.82 53.966,-20.82 74.706,0 l 625.7,625.67 c 20.82,20.85 20.82,54.06 0,74.7"
         inkscape:connector-curvature="0" /></clipPath><clipPath
       id="clipPath30520"
       clipPathUnits="userSpaceOnUse"><path
         id="path30518"
         d="m 992.641,4747.07 71.7578,0 0,532.07 -71.7578,0 z"
         inkscape:connector-curvature="0" /></clipPath><clipPath
       id="clipPath30760"
       clipPathUnits="userSpaceOnUse"><path
         id="path30758"
         d="m 1028.52,5379.84 c -55.293,0 -100.079,-44.77 -100.079,-100.06 0,-55.23 44.786,-100.09 100.079,-100.09 55.29,0 100.12,44.86 100.12,100.09 0,55.29 -44.83,100.06 -100.12,100.06"
         inkscape:connector-curvature="0" /></clipPath><clipPath
       id="clipPath31000"
       clipPathUnits="userSpaceOnUse"><path
         id="path30998"
         d="m 1303.32,5107.43 c 130.39,186.22 387.07,231.55 573.38,101.11 186.31,-130.47 231.69,-387.33 101.3,-573.53 l -674.68,472.42"
         inkscape:connector-curvature="0" /></clipPath><clipPath
       id="clipPath31240"
       clipPathUnits="userSpaceOnUse"><path
         id="path31238"
         d="m 79.1367,4635.01 c -130.3906,186.2 -85.22654,442.93 101.1333,573.34 186.316,130.5 443.171,85.3 573.562,-100.92 L 79.1367,4635.01"
         inkscape:connector-curvature="0" /></clipPath><clipPath
       id="clipPath31480"
       clipPathUnits="userSpaceOnUse"><path
         id="path31478"
         d="m 573.988,3382.41 c -55.293,0 -100.078,-44.79 -100.078,-100.09 0,-55.22 44.785,-100.06 100.078,-100.06 55.293,0 100.117,44.84 100.117,100.06 0,55.3 -44.824,100.09 -100.117,100.09"
         inkscape:connector-curvature="0" /></clipPath><clipPath
       id="clipPath31720"
       clipPathUnits="userSpaceOnUse"><path
         id="path31718"
         d="m 1483.05,3382.41 c -55.3,0 -100.09,-44.79 -100.09,-100.09 0,-55.22 44.79,-100.06 100.09,-100.06 55.29,0 100.11,44.84 100.11,100.06 0,55.3 -44.82,100.09 -100.11,100.09"
         inkscape:connector-curvature="0" /></clipPath><clipPath
       id="clipPath31960"
       clipPathUnits="userSpaceOnUse"><path
         id="path31958"
         d="m 1028.52,5053.33 c -510.45,0 -924.258,-413.77 -924.258,-924.26 0,-510.41 413.808,-924.25 924.258,-924.25 510.45,0 924.26,413.84 924.26,924.25 0,510.49 -413.81,924.26 -924.26,924.26"
         inkscape:connector-curvature="0" /></clipPath><clipPath
       id="clipPath32092"
       clipPathUnits="userSpaceOnUse"><path
         id="path32090"
         d="m 1028.52,4819.67 c 415.1,0 752.03,-312.85 757.53,-700.76 0,3.37 0.2,6.73 0.2,10.16 0,418.54 -339.23,757.75 -757.73,757.75 -418.497,0 -757.735,-339.21 -757.735,-757.75 0,-3.43 0.195,-6.79 0.274,-10.16 5.429,387.91 342.363,700.76 757.461,700.76"
         inkscape:connector-curvature="0" /></clipPath><clipPath
       id="clipPath32114"
       clipPathUnits="userSpaceOnUse"><path
         id="path32112"
         d="m 1028.52,4819.67 c -415.098,0 -752.032,-312.85 -757.461,-700.76 0.07,-7.92 0.246,-15.77 0.566,-23.55 17.656,-402.83 349.707,-724.02 756.895,-724.02 407.19,0 739.24,321.19 756.89,724.02 0.36,7.78 0.49,15.63 0.64,23.55 -5.5,387.91 -342.43,700.76 -757.53,700.76"
         inkscape:connector-curvature="0" /></clipPath><clipPath
       id="clipPath32194"
       clipPathUnits="userSpaceOnUse"><path
         id="path32192"
         d="m 1086.33,4747.13 c 0,-31.95 -25.88,-57.81 -57.81,-57.81 -31.922,0 -57.793,25.86 -57.793,57.81 0,31.89 25.871,57.75 57.793,57.75 31.93,0 57.81,-25.86 57.81,-57.75"
         inkscape:connector-curvature="0" /></clipPath><clipPath
       id="clipPath32396"
       clipPathUnits="userSpaceOnUse"><path
         id="path32394"
         d="m 1100.78,4129.15 c 0,-39.95 -32.35,-72.26 -72.26,-72.26 -39.911,0 -72.254,32.31 -72.254,72.26 0,39.87 32.343,72.18 72.254,72.18 39.91,0 72.26,-32.31 72.26,-72.18"
         inkscape:connector-curvature="0" /></clipPath><clipPath
       id="clipPath32598"
       clipPathUnits="userSpaceOnUse"><path
         id="path32596"
         d="m 1086.33,3511.15 c 0,-31.95 -25.88,-57.82 -57.81,-57.82 -31.922,0 -57.793,25.87 -57.793,57.82 0,31.89 25.871,57.75 57.793,57.75 31.93,0 57.81,-25.86 57.81,-57.75"
         inkscape:connector-curvature="0" /></clipPath><clipPath
       id="clipPath32800"
       clipPathUnits="userSpaceOnUse"><path
         id="path32798"
         d="m 410.531,4186.89 c 31.914,0 57.813,-25.85 57.813,-57.78 0,-31.99 -25.899,-57.79 -57.813,-57.79 -31.933,0 -57.832,25.8 -57.832,57.79 0,31.93 25.899,57.78 57.832,57.78"
         inkscape:connector-curvature="0" /></clipPath><clipPath
       id="clipPath33002"
       clipPathUnits="userSpaceOnUse"><path
         id="path33000"
         d="m 1646.47,4186.89 c 31.96,0 57.83,-25.85 57.83,-57.78 0,-31.99 -25.87,-57.79 -57.83,-57.79 -31.92,0 -57.77,25.8 -57.77,57.79 0,31.93 25.85,57.78 57.77,57.78"
         inkscape:connector-curvature="0" /></clipPath><clipPath
       id="clipPath33204"
       clipPathUnits="userSpaceOnUse"><path
         id="path33202"
         d="m 789.984,3808.87 c -22.558,-22.57 -59.14,-22.57 -81.707,0 -22.57,22.56 -22.57,59.14 0,81.72 l 167.352,167.35 c 22.57,22.57 59.152,22.57 81.719,0 22.597,-22.57 22.597,-59.15 0,-81.71 L 789.984,3808.87"
         inkscape:connector-curvature="0" /></clipPath><clipPath
       id="clipPath33406"
       clipPathUnits="userSpaceOnUse"><path
         id="path33404"
         d="m 550.621,4525.19 c -22.57,22.63 -22.57,59.22 0,81.78 22.567,22.57 59.149,22.57 81.719,0 l 324.969,-324.98 c 22.609,-22.63 22.609,-59.14 0.039,-81.79 -22.598,-22.55 -59.18,-22.55 -81.758,0.07 l -324.969,324.92"
         inkscape:connector-curvature="0" /></clipPath><clipPath
       id="clipPath33608"
       clipPathUnits="userSpaceOnUse"><path
         id="path33606"
         d="m 1162.17,4159.49 c -11.5,-4.69 -24.61,0.78 -29.29,12.27 -4.7,11.49 0.8,24.56 12.26,29.29 l 419.9,171.78 c 11.46,4.69 24.57,-0.78 29.26,-12.27 4.69,-11.5 -0.81,-24.52 -12.26,-29.29 l -419.87,-171.78"
         inkscape:connector-curvature="0" /></clipPath><clipPath
       id="clipPath33740"
       clipPathUnits="userSpaceOnUse"><path
         id="path33738"
         d="m 1786.05,4118.91 c -0.15,-7.92 -0.28,-15.77 -0.64,-23.55 0.43,4.64 0.84,9.26 0.84,14.03 0,3.22 -0.2,6.31 -0.2,9.52"
         inkscape:connector-curvature="0" /></clipPath><clipPath
       id="clipPath33750"
       clipPathUnits="userSpaceOnUse"><path
         id="path33748"
         d="m 270.785,4109.39 c 0,-4.77 0.371,-9.39 0.84,-14.03 -0.32,7.78 -0.496,15.63 -0.566,23.55 -0.079,-3.21 -0.274,-6.3 -0.274,-9.52"
         inkscape:connector-curvature="0" /></clipPath><clipPath
       id="clipPath33764"
       clipPathUnits="userSpaceOnUse"><path
         id="path33762"
         d="m 1342.13,33.3594 -625.181,0 c -10.969,0 -58.144,-2.3828 -66.086,12.2187 -0.515,-1.4062 -0.867,-2.8242 -0.867,-4.1523 0,-14.2461 0,-27.0117 0,-27.0117 4.656,-16.99223 55.555,-14.246131 66.953,-14.246131 l 625.181,0 c 11.35,0 62.25,-2.746099 66.91,14.246131 0,0 0,12.7656 0,27.0117 0,1.3281 -0.35,2.7461 -0.83,4.1523 -7.99,-14.6015 -55.2,-12.2187 -66.08,-12.2187"
         inkscape:connector-curvature="0" /></clipPath><clipPath
       id="clipPath33972"
       clipPathUnits="userSpaceOnUse"><path
         id="path33970"
         d="m 1299.4,357.559 -539.728,0 C 756.813,303.449 746.859,156.777 712.641,115.508 681.742,78.0781 655.551,59.4063 650.863,45.5781 658.805,30.9766 705.98,33.3594 716.949,33.3594 l 625.181,0 c 10.88,0 58.09,-2.3828 66.08,12.2187 -4.73,13.8282 -30.89,32.5 -61.86,69.9299 -34.14,41.269 -44.12,187.941 -46.95,242.051"
         inkscape:connector-curvature="0" /></clipPath><clipPath
       id="clipPath34154"
       clipPathUnits="userSpaceOnUse"><path
         id="path34152"
         d="m 0.00390625,1949.8 c 0,36.18 29.58989375,65.83 65.73439375,65.83 l 1925.5917,0 c 36.15,0 65.74,-29.65 65.74,-65.83 l 0,-1567.964 c 0,-36.18 -29.59,-65.781 -65.74,-65.781 l -1925.5917,0 c -36.1445,0 -65.73439375,29.601 -65.73439375,65.781 l 0,1567.964"
         inkscape:connector-curvature="0" /></clipPath><clipPath
       id="clipPath34276"
       clipPathUnits="userSpaceOnUse"><path
         id="path34274"
         d="m 2007.66,1625.76 0,287.55 c 0,25.22 -19.3,45.81 -42.91,45.81 l -1878.5742,0 c -23.6524,0 -42.9492,-20.59 -42.9492,-45.81 l 0,-1032.654 C 734.34,993.34 1398.73,1255.52 2007.66,1625.76"
         inkscape:connector-curvature="0" /></clipPath><clipPath
       id="clipPath34324"
       clipPathUnits="userSpaceOnUse"><path
         id="path34322"
         d="m 43.2266,880.656 0,-220.754 c 0,-25.214 19.2968,-45.886 42.9492,-45.886 l 1878.5742,0 c 23.61,0 42.91,20.672 42.91,45.886 l 0,965.858 C 1398.73,1255.52 734.34,993.34 43.2266,880.656"
         inkscape:connector-curvature="0" /></clipPath><clipPath
       id="clipPath34372"
       clipPathUnits="userSpaceOnUse"><path
         id="path34370"
         d="m 1931,439.707 c 0,-20.281 -16.45,-36.648 -36.69,-36.648 -20.24,0 -36.69,16.367 -36.69,36.648 0,20.285 16.45,36.719 36.69,36.719 20.24,0 36.69,-16.434 36.69,-36.719"
         inkscape:connector-curvature="0" /></clipPath><clipPath
       id="clipPath34546"
       clipPathUnits="userSpaceOnUse"><path
         id="path34544"
         d="m 1918.59,439.707 c 0,-13.387 -10.85,-24.277 -24.28,-24.277 -13.43,0 -24.27,10.89 -24.27,24.277 0,13.391 10.84,24.277 24.27,24.277 13.43,0 24.28,-10.886 24.28,-24.277"
         inkscape:connector-curvature="0" /></clipPath><clipPath
       id="clipPath34676"
       clipPathUnits="userSpaceOnUse"><path
         id="path34674"
         d="m 37.7773,1930.45 c 0,28.51 23.2618,51.81 51.7188,51.81 l 1878.0739,0 c 28.47,0 51.72,-23.3 51.72,-51.81 l 0,-1286.434 c 0,-28.43 -23.25,-51.692 -51.72,-51.692 l -1878.0739,0 c -28.457,0 -51.7188,23.262 -51.7188,51.692 z M 97.3398,699.141 c 0,-25.996 21.2972,-47.305 47.2932,-47.305 l 1767.497,0 c 26.04,0 47.33,21.309 47.33,47.305 l 0,1176.269 c 0,26 -21.29,47.3 -47.33,47.3 l -1767.497,0 c -25.996,0 -47.2932,-21.3 -47.2932,-47.3 l 0,-1176.269"
         inkscape:connector-curvature="0" /></clipPath></defs><g
     id="g56304"
     transform="translate(152.45019,-1291.4469)"><g
       id="g58404"><g
         transform="matrix(1.0017021,0,0,1,-1086.4213,878.30708)"
         id="g56997"><g
           id="g1352"
           transform="matrix(0.13333333,0,0,-0.13333333,57.312102,1523.3758)"><g
             clip-path="url(#clipPath1358)"
             id="g1354"><path
               id="path1360"
               style="fill:#6dcbe7;fill-opacity:1;fill-rule:nonzero;stroke:none"
               d="m 8205,91973.4 -0.01,-83747.62 -1661.96,0 0,83747.62"
               inkscape:connector-curvature="0" /><path
               inkscape:connector-curvature="0"
               style="fill:#377ca9;fill-opacity:1;fill-rule:nonzero;stroke:none"
               d="m 928.57031,422.44336 0,249.96875 221.59379,0 0,-14.27149 1.1464,0 0,-2 0,-4.0996 0,-0.002 0,-4.09765 0,-4.09961 0,-4.09766 0,-4.09961 0,-4.09765 0,-4.09961 0,-4.09766 0,-4.09961 0,-4.09961 0,-4.09961 0,-4.09766 0,-4.0996 0,-4.09766 0,-4.09961 0,-4.09766 0,-4.09961 0,-4.0996 0,-4.09766 0,-4.09961 0,-4.09766 0,-4.09961 0,-4.09961 0,-4.09765 0,-4.09961 0,-4.09766 0,-0.002 0,-4.09766 0,-4.09961 0,-4.09765 0,-4.09961 0,-4.09766 0,-4.09961 0,-4.09765 0,-4.09961 0,-4.09766 0,-0.002 0,-4.09766 0,-4.09961 0,-4.09765 0,-0.002 0,-4.09765 0,-4.09961 0,-4.09766 0,-4.09961 0,-4.09766 0,-0.002 0,-4.09765 0,-4.09961 0,-4.09766 0,-4.09961 0,-4.09766 0,-4.0996 0,-4.09961 0,-4.09766 0,-0.002 0,-4.09766 0,-4.09961 0,-4.09766 0,-4.09961 0,-4.09765 0,-3.81836 -1.1464,0 0,-0.34375 -221.59379,0 z"
               transform="matrix(7.5000002,0,0,-7.5000002,-429.84078,11425.319)"
               id="path1362" /><path
               id="path1474"
               style="fill:#4388c2;fill-opacity:1;fill-rule:nonzero;stroke:none"
               d="m 8205,6504.27 -0.01,-83747.57 -1661.96,0 0,83747.57"
               inkscape:connector-curvature="0" /></g></g><path
           id="path1476"
           style="fill:#bce7f2;fill-opacity:1;fill-rule:nonzero;stroke:none"
           d="m 968.47875,436.87071 144.05995,0 c 13.1747,0 24.5094,5.80266 29.3894,14.06266 -4.88,-11.27866 -16.2147,-19.20266 -29.3894,-19.20266 l -144.05995,0 c -13.16667,0 -24.5,7.924 -29.37867,19.20266 4.87867,-8.26 16.212,-14.06266 29.37867,-14.06266"
           inkscape:connector-curvature="0" /></g><g
         transform="matrix(1.0017021,0,0,1,-1084.1084,877.95942)"
         id="g58378"><g
           clip-path="url(#clipPath1484)"
           id="g1480"
           transform="matrix(0.13333333,0,0,-0.13333333,57.312102,1523.3758)"><path
             id="path1486"
             style="fill:#fee818;fill-opacity:1;fill-rule:nonzero;stroke:none"
             d="m 7467.91,103532 0.01,-96049.87 527.26,0 -0.01,96049.87"
             inkscape:connector-curvature="0" /><path
             inkscape:connector-curvature="0"
             style="fill:#ffcc00;fill-opacity:1;fill-rule:nonzero;stroke:none"
             d="m 1205.4844,503.90234 0,3.00196 0,1.66015 0,0.3711 0,0.74023 0,0.002 0,1.84961 0,0.002 0,0.74023 0,0.36914 0,1.48242 0,0.002 0,1.84961 0,0.002 0,0.74023 0,0.36914 0,1.48243 0,0.002 0,1.84961 0,0.002 0,0.74024 0,0.36914 0,1.48242 0,0.002 0,1.84961 0,0.002 0,0.36915 0,0.37109 0,0.36914 0,1.48242 0,0.002 0,1.84961 0,0.002 0,0.36914 0,0.37109 0,0.36914 0,1.48242 0,0.002 0,1.84961 0,0.002 0,0.36914 0,0.37109 0,0.36914 0,1.48243 0,0.002 0,1.84961 0,0.002 0,0.36914 0,2.22266 0,0.002 0,0.73828 0,0.002 0,1.10937 0,0.002 0,0.36914 0,2.22266 0,0.002 0,0.73829 0,0.002 0,1.10937 0,0.002 0,2.59179 0,0.002 0,0.73828 0,0.002 0,1.10938 0,0.002 0,2.5918 0,0.002 0,0.73828 0,0.002 0,0.36914 0,0.74024 0,0.002 0,1.11133 0,0.36914 0,0.37109 0,0.3711 0,1.10937 0,0.002 0,0.36914 0,0.74023 0,0.002 0,1.11133 0,0.36914 0,1.11133 0,0.002 0,0.73829 0,0.002 0,0.36914 0,0.74023 0,0.002 0,1.11133 0,0.36914 0,0.74023 0,0.002 0,1.10938 0,0.002 0,0.36914 0,0.74024 0,0.002 0,0.74023 0,0.3711 0,0.37109 0,0.36914 0,0.3711 0,0.36914 0,0.37109 0,0.37109 0,0.36914 0,0.002 0,0.36914 0,0.37109 0,2.00586 0,2.375 70.3008,0 0,-4.38086 0,-0.37109 0,-0.36914 0,-0.002 0,-0.37109 0,-0.36914 0,-0.37109 0,-0.3711 0,-0.36914 0,-0.36914 0,-0.37109 0,-0.3711 0,-0.37109 0,-0.36914 0,-0.002 0,-0.36914 0,-0.36915 0,-0.002 0,-0.36914 0,-0.002 0,-0.36914 0,-0.3711 0,-0.36914 0,-0.002 0,-0.36914 0,-0.36914 0,-0.002 0,-0.36914 0,-0.3711 0,-0.37109 0,-0.36914 0,-0.002 0,-0.36914 0,-0.36914 0,-0.002 0,-0.36914 0,-0.002 0,-0.36915 0,-0.36914 0,-0.002 0,-0.36914 0,-0.37109 0,-0.36914 0,-0.002 0,-0.36914 0,-0.37109 0,-0.37109 0,-0.36915 0,-0.002 0,-0.36914 0,-0.36914 0,-0.002 0,-0.36914 0,-0.002 0,-0.36914 0,-0.37109 0,-0.36914 0,-0.3711 0,-0.36914 0,-0.002 0,-0.36914 0,-0.37109 0,-0.3711 0,-0.36914 0,-0.002 0,-0.36914 0,-0.36914 0,-0.002 0,-0.36914 0,-0.002 0,-0.36914 0,-0.36914 0,-0.002 0,-0.36914 0,-0.3711 0,-0.37109 0,-0.36914 0,-0.3711 0,-0.37109 0,-0.36914 0,-0.002 0,-0.36914 0,-0.3711 0,-0.36914 0,-0.002 0,-0.36914 0,-0.36914 0,-0.002 0,-0.36914 0,-0.37109 0,-0.37109 0,-0.36915 0,-0.37109 0,-0.37109 0,-0.36914 0,-0.002 0,-0.36914 0,-0.37109 0,-0.36914 0,-0.002 0,-0.36914 0,-0.36915 0,-0.002 0,-0.36914 0,-0.37109 0,-0.3711 0,-0.36914 0,-0.37109 0,-0.36914 0,-0.002 0,-0.36914 0,-0.002 0,-0.36914 0,-0.37109 0,-0.36914 0,-0.002 0,-0.36914 0,-0.36914 0,-0.002 0,-0.36914 0,-0.3711 0,-0.37109 0,-0.36914 0,-0.37109 0,-0.36914 0,-0.002 0,-0.36914 0,-0.002 0,-0.36914 0,-0.3711 0,-0.37109 0,-0.36914 0,-0.36914 0,-0.002 0,-0.36914 0,-0.3711 0,-0.37109 0,-0.36914 0,-0.002 0,-0.36914 0,-0.36914 0,-0.002 0,-0.36914 0,-0.002 0,-0.36914 0,-0.3711 0,-0.37109 0,-0.36914 0,-0.36914 0,-0.002 0,-0.36914 0,-0.37109 0,-0.37109 0,-0.36914 0,-0.002 0,-0.36914 0,-0.36914 0,-0.002 0,-0.36914 0,-0.002 0,-0.36914 0,-0.37109 0,-0.37109 0,-0.36915 0,-0.36914 0,-0.002 0,-0.36914 0,-0.37109 0,-0.3711 0,-0.36914 0,-0.002 0,-0.36914 0,-0.36914 0,-0.002 0,-0.36915 0,-0.002 0,-0.36914 0,-0.37109 0,-0.3711 0,-0.36914 0,-0.36914 0,-0.002 0,-0.36914 0,-0.3711 0,-0.37109 0,-0.36914 0,-0.002 0,-0.36914 0,-0.3711 0,-0.36914 0,-0.002 0,-0.36914 0,-0.3711 0,-0.37109 0,-0.36914 0,-0.36914 0,-0.002 0,-0.36914 0,-0.3711 0,-0.37109 0,-0.36914 0,-0.002 0,-0.36914 0,-0.37109 0,-0.36914 0,-0.002 0,-0.36914 0,-0.3711 0,-0.37109 0,-0.36914 0,-0.36914 0,-0.002 0,-0.36914 0,-0.37109 0,-0.37109 0,-0.36915 0,-0.002 0,-0.36914 0,-0.37109 0,-0.36914 0,-0.002 0,-0.36914 0,-0.37109 0,-0.37109 0,-0.36914 0,-0.36915 0,-0.002 0,-0.36914 0,-0.37109 0,-0.3711 0,-1.66015 0,-3.00196 -70.3008,0 z"
             transform="matrix(7.5000002,0,0,-7.5000002,-1573.2172,11296.367)"
             id="path1488" /><path
             id="path1840"
             style="fill:#a08418;fill-opacity:1;fill-rule:nonzero;stroke:none"
             d="m 7467.91,6993.16 0.01,-96050.26 527.26,0 -0.01,96050.26"
             inkscape:connector-curvature="0" /></g><g
           clip-path="url(#clipPath1848)"
           id="g1844"
           transform="matrix(0.13333333,0,0,-0.13333333,57.312102,1523.3758)"><path
             inkscape:connector-curvature="0"
             style="fill:#4aa23f;fill-opacity:1;fill-rule:nonzero;stroke:none"
             d="m 1270.4512,507.98242 0,1.125 0,0.54492 0,2.17188 0,0.54297 0,0.54297 0,0.002 0,1.62891 0,0.002 0,0.54101 0,0.54297 0,2.7168 0,0.54297 0,3.25976 0,0.002 0,1.08398 0,0.002 0,1.08593 0,0.54297 0,0.54297 0,0.002 0,0.54102 0,1.63086 0,0.54297 0,0.54297 0,0.002 0,3.25781 0,0.002 0,0.54102 0,0.002 0,2.17188 0,0.54297 0,2.71679 0,0.002 0,0.54101 0,0.54297 0,2.17383 0,0.002 0,0.54102 0,0.002 0,0.54102 0,2.71679 0,0.002 0,2.71484 0,0.54297 0,2.7168 0,0.54297 0,0.54296 0,0.002 0,2.17187 0,0.002 0,0.54102 0,2.7168 0,0.54297 0,3.25976 0,0.002 0,1.08399 0,0.002 0,1.08594 0,0.54297 0,0.54297 0,0.002 0,0.54102 0,0.002 0,0.54102 0,1.08789 0,0.54296 0,1.08594 0,0.002 0,3.80274 0,0.54297 0,0.54297 0,0.54492 0,0.95898 70.3047,0 0,-0.95898 0,-0.54492 0,-0.54297 0,-0.54297 0,-0.54297 0,-0.54492 0,0 0,-0.54297 0,0 0,-0.54297 0,-0.54297 0,-0.54297 0,-0.54297 0,-0.002 0,-0.54101 0,-0.54297 0,-0.002 0,-0.54296 0,0 0,-0.54297 0,0 0,-0.54297 0,-0.002 0,-0.54102 0,-0.002 0,-0.54102 0,-0.002 0,-0.54102 0,-0.002 0,-0.54297 0,-0.54297 0,-0.54297 0,0 0,-0.54492 0,0 0,-0.54102 0,-0.002 0,-0.54297 0,-0.54297 0,-0.54296 0,-0.54297 0,-0.54297 0,-0.54297 0,-0.002 0,0 0,-0.54297 0,0 0,-0.54297 0,-0.54297 0,-0.54297 0,-0.54297 0,-0.54297 0,-0.002 0,-0.54102 0,-0.002 0,-0.54297 0,0 0,-0.54297 0,0 0,-0.54296 0,-0.54297 0,-0.002 0,-0.54101 0,-0.002 0,-0.54297 0,-0.54297 0,-0.54297 0,-0.54297 0,0 0,-0.54297 0,0 0,-0.54297 0,-0.002 0,-0.54297 0,-0.54297 0,-0.54297 0,-0.54297 0,-0.54296 0,-0.54493 0,0 0,-0.54296 0,0 0,-0.54297 0,-0.54297 0,-0.54297 0,-0.54297 0,-0.002 0,-0.54102 0,-0.002 0,-0.54102 0,-0.002 0,-0.54297 0,0 0,-0.54297 0,0 0,-0.54297 0,-0.54297 0,-0.002 0,-0.54297 0,-0.54101 0,-0.002 0,-0.54296 0,-0.54297 0,-0.54297 0,0 0,-0.54297 0,0 0,-0.54297 0,-0.002 0,-0.54297 0,-0.54297 0,-0.54297 0,-0.54297 0,-0.54297 0,-0.002 0,-0.54297 0,0 0,-0.54297 0,0 0,-0.54297 0,-0.54296 0,-0.54297 0,-0.54297 0,-0.54297 0,-0.002 0,-0.54102 0,-0.002 0,-0.54297 0,0 0,-0.54297 0,0 0,-0.54297 0,-0.54297 0,-0.002 0,-0.54102 0,-0.002 0,-0.54102 0,-0.002 0,-0.54297 0,-0.54297 0,-0.54296 0,0 0,-0.54493 0,0 0,-0.54101 0,-0.002 0,-0.54296 0,-0.54297 0,-0.54297 0,-0.54297 0,-0.54297 0,-0.54297 0,-0.002 0,0 0,-0.54297 0,0 0,-0.54297 0,-0.54297 0,-0.54297 0,-0.54296 0,-0.54297 0,-0.002 0,-0.54297 0,-0.54296 0,0 0,-0.54297 0,0 0,-0.54297 0,-0.54297 0,-0.002 0,-0.54102 0,-0.002 0,-0.54297 0,-0.54297 0,-0.54297 0,-0.54297 0,-0.002 0,0 0,-0.54102 0,0 0,-0.54492 0,-1.125 -70.3047,0 z"
             transform="matrix(7.5000002,0,0,-7.5000002,-1573.2172,11296.367)"
             id="path1854" /><path
             id="path2092"
             style="fill:#5d922e;fill-opacity:1;fill-rule:nonzero;stroke:none"
             d="m 7955.17,6993.16 0.01,-95563.06 527.28,0 0,95563.06"
             inkscape:connector-curvature="0" /></g><g
           clip-path="url(#clipPath2100)"
           id="g2096"
           transform="matrix(0.13333333,0,0,-0.13333333,57.312102,1523.3758)"><path
             id="path2102"
             style="fill:#52ade5;fill-opacity:1;fill-rule:nonzero;stroke:none"
             d="m 7955.17,102556 0.01,-95562.84 527.28,0 0,95562.84"
             inkscape:connector-curvature="0" /><path
             inkscape:connector-curvature="0"
             style="fill:#385ac0;fill-opacity:1;fill-rule:nonzero;stroke:none"
             d="m 1270.4512,573.36133 0,0.39844 0,0.375 0,0.74804 0,0.002 0,0.37304 0,0.375 0,0.375 0,0.002 0,2.61914 0,0.002 0,0.37305 0,1.875 0,0.37304 0,1.49805 0,0.002 0,0.37305 0,0.375 0,0.375 0,0.37305 0,1.87304 0,0.002 0,4.49414 0,0.002 0,1.12109 0,0.002 0,0.37304 0,0.375 0,0.002 0,2.99609 0,0.37305 0,4.87109 0,0.37305 0,0.375 0,0.002 0,3.3711 0,0.37304 0,1.87305 0,0.002 0,0.37305 0,0.75 0,0.37305 0,0.75 0,0.002 0,5.24219 0,0.002 0,2.62109 0,0.37305 0,0.75 0,0.002 0,1.12305 0,0.37305 0,4.12304 0,0.37305 0,1.87305 0,0.002 0,0.37305 0,0.375 0,0.37304 0,0.375 0,0.375 0,0.002 0,0.375 0,0.37304 0,0.375 0,0.37305 0,0.375 0,0.375 0,0.375 0,0.375 0,0.37305 0,0.002 0,0.37305 0,0.375 0,0.375 0,0.375 0,0.375 0,0.37305 0,0.002 0,0.37305 0,0.375 0,0.375 0,0.375 0,0.37304 0,0.375 0,0.002 0,0.37304 0,0.37305 0,0.002 0,0.37305 0,0.375 0,0.375 0,0.375 0,0.375 0,0.37305 0,0.75 70.3047,0 0,-0.75 0,-0.375 0,-0.37305 0,-0.375 0,-0.375 0,-0.375 0,-0.37305 0,-0.002 0,-0.37305 0,-0.37304 0,-0.002 0,-0.375 0,-0.375 0,-0.37304 0,-0.375 0,-0.375 0,-0.37305 0,-0.002 0,-0.37305 0,-0.375 0,-0.375 0,-0.375 0,-0.375 0,-0.37305 0,-0.002 0,-0.375 0,-0.37305 0,-0.375 0,-0.375 0,-0.375 0,-0.37305 0,-0.375 0,-0.375 0,-0.37304 0,-0.002 0,-0.375 0,-0.375 0,-0.37304 0,-0.375 0,-0.37305 0,-0.002 0,-0.37305 0,-0.375 0,-0.375 0,-0.375 0,-0.37305 0,-0.002 0,-0.37305 0,-0.375 0,-0.375 0,-0.375 0,-0.375 0,-0.375 0,-0.37304 0,-0.375 0,-0.375 0,-0.375 0,-0.375 0,-0.37305 0,-0.002 0,-0.37305 0,-0.375 0,-0.375 0,-0.37305 0,-0.002 0,-0.37305 0,-0.375 0,-0.002 0,-0.37305 0,-0.37304 0,-0.375 0,-0.375 0,-0.375 0,-0.375 0,-0.375 0,-0.37305 0,-0.002 0,-0.37305 0,-0.375 0,-0.375 0,-0.375 0,-0.375 0,-0.37305 0,-0.375 0,-0.375 0,-0.375 0,-0.375 0,-0.37304 0,-0.375 0,-0.375 0,-0.37305 0,-0.002 0,-0.37305 0,-0.375 0,-0.002 0,-0.37305 0,-0.375 0,-0.37305 0,-0.002 0,-0.37305 0,-0.002 0,-0.37305 0,-0.375 0,-0.375 0,-0.375 0,-0.37304 0,-0.002 0,-0.37304 0,-0.375 0,-0.375 0,-0.375 0,-0.375 0,-0.37305 0,-0.375 0,-0.375 0,-0.375 0,-0.37305 0,-0.002 0,-0.37305 0,-0.002 0,-0.37305 0,-0.375 0,-0.37304 0,-0.375 0,-0.375 0,-0.375 0,-0.375 0,-0.375 0,-0.37305 0,-0.375 0,-0.375 0,-0.375 0,-0.375 0,-0.37305 0,-0.002 0,-0.37305 0,-0.375 0,-0.375 0,-0.375 0,-0.375 0,-0.375 0,-0.37305 0,-0.375 0,-0.37304 0,-0.002 0,-0.37304 0,-0.002 0,-0.37304 0,-0.002 0,-0.37304 0,-0.375 0,-0.37305 0,-0.002 0,-0.37305 0,-0.375 0,-0.375 0,-0.375 0,-0.375 0,-0.37305 0,-0.375 0,-0.375 0,-0.375 0,-0.375 0,-0.375 0,-0.37304 0,-0.002 0,-0.37304 0,-0.375 0,-0.375 0,-0.375 0,-0.37305 0,-0.002 0,-0.37305 0,-0.37305 0,-0.002 0,-0.375 0,-0.37305 0,-0.002 0,-0.37305 0,-0.375 0,-0.375 0,-0.37304 0,-0.002 0,-0.37304 0,-0.375 0,-0.375 0,-0.375 0,-0.375 0,-0.37305 0,-0.002 0,-0.37305 0,-0.002 0,-0.37305 0,-0.375 0,-0.375 0,-0.375 0,-0.37305 0,-0.375 0,-0.37304 0,-0.002 0,-0.37304 0,-0.002 0,-0.375 0,-0.37304 0,-0.002 0,-0.37304 0,-0.375 0,-0.375 0,-0.39844 -70.3047,0 z"
             transform="matrix(7.5000002,0,0,-7.5000002,-1573.2172,11296.367)"
             id="path2104" /><path
             id="path2452"
             style="fill:#29648b;fill-opacity:1;fill-rule:nonzero;stroke:none"
             d="m 7955.17,6504.27 0.01,-95563.07 527.28,0 0,95563.07"
             inkscape:connector-curvature="0" /></g><g
           clip-path="url(#clipPath2460)"
           id="g2456"
           transform="matrix(0.13333333,0,0,-0.13333333,57.312102,1523.3758)"><path
             id="path2462"
             style="fill:#f14e41;fill-opacity:1;fill-rule:nonzero;stroke:none"
             d="m 7467.91,103043 0.01,-96049.84 527.26,0 -0.01,96049.84"
             inkscape:connector-curvature="0" /><path
             inkscape:connector-curvature="0"
             style="fill:#e04e13;fill-opacity:1;fill-rule:nonzero;stroke:none"
             d="m 1205.4844,572.99414 0,0.76563 0,0.32421 0,0.64454 0,0.32226 0,0.32227 0,0.002 0,0.9668 0,0.32226 0,0.32227 0,0.002 0,0.9668 0,0.32226 0,1.29102 0,0.32226 0,0.96876 0,0.002 0,0.32031 0,0.32422 0,0.32226 0,0.32227 0,0.002 0,0.9668 0,0.32227 0,0.32226 0,0.002 0,3.54883 0,0.32227 0,0.32226 0,0.002 0,0.32031 0,7.42383 0,0.002 0,0.32031 0,0.32227 0,0.002 0,4.51758 0,0.32227 0,1.61328 0,0.32226 0,0.96875 0,0.002 0,0.32031 0,1.29101 0,0.002 0,2.58008 0,0.32226 0,1.29102 0,0.32226 0,0.96875 0,0.002 0,0.32031 0,0.96875 0,0.002 0,0.32031 0,0.002 0,0.32031 0,0.32422 0,0.32226 0,1.29102 0,0.32226 0,1.29102 0,0.32227 0,2.58203 0,0.002 0,0.9668 0,0.32226 0,0.96875 0,0.32227 0,3.22656 0,0.002 0,0.64454 0,0.32226 0,0.32227 0,0.002 0,0.32031 0,0.002 0,0.64453 0,0.32226 0,0.32227 0,0.002 0,1.61328 0,0.32227 0,0.32226 0,0.32422 0,0.32227 0,0.32226 0,0.32227 0,0.32422 0,0.32226 0,0.32227 0,0.32226 0,0.32227 0,0.32422 0,0.32227 0,0.32226 0,0.32227 0,0.32226 0,0.32422 0,0.32227 0,0.32422 0,0.32031 0,0.002 0,0.32227 0,0.32226 0,0.32227 0,0.32422 0,0.32226 0,0.32227 0,0.32226 0,0.32227 0,4.25976 0,0.2168 70.3008,0 0,-0.2168 0,-42.01757 0,-0.32227 0,-0.32226 0,-0.32422 0,-0.32227 0,-0.32227 0,-0.32226 0,-0.32227 0,-0.32421 0,-0.32227 0,-0.32227 0,-0.32226 0,-0.32227 0,-0.32422 0,-0.32226 0,-0.32227 0,-0.002 0,-0.32031 0,-0.002 0,-0.32031 0,-0.002 0,-0.32227 0,-0.32422 0,-0.32226 0,-0.32227 0,-0.32226 0,-0.32227 0,-0.32422 0,-0.32226 0,-0.32227 0,-0.32226 0,-0.32227 0,-0.32422 0,-0.32226 0,-0.32227 0,-0.32227 0,-0.32226 0,-0.32422 0,-0.32227 0,-0.32226 0,-0.32227 0,-0.32422 0,-0.32226 0,-0.32227 0,-0.002 0,-0.32031 0,-0.002 0,-0.32031 0,-0.002 0,-0.32227 0,-0.32226 0,-0.32422 0,-0.32227 0,-0.32226 0,-0.32227 0,-0.32226 0,-0.32422 0,-0.32227 0,-0.32226 0,-0.32227 0,-0.32227 0,-0.002 0,-0.32031 0,-0.002 0,-0.32227 0,-0.32226 0,-0.32227 0,-0.32227 0,-0.002 0,-0.32031 0,-0.002 0,-0.32226 0,-0.32227 0,-0.002 0,-0.32031 0,-0.002 0,-0.32227 0,-0.32227 0,-0.32226 0,-0.002 0,-0.32226 0,-0.32227 0,-0.32226 0,-0.32227 0,-0.32226 0,-0.002 0,-0.32226 0,-0.32227 0,-0.32226 0,-0.32227 0,-0.002 0,-0.32031 0,-0.002 0,-0.32226 0,-0.32227 0,-0.32226 0,-0.32227 0,-0.002 0,-0.32032 0,-0.002 0,-0.32226 0,-0.32227 0,-0.32227 0,-0.32421 0,-0.22071 0,-0.54492 -70.3008,0 z"
             transform="matrix(7.5000002,0,0,-7.5000002,-1573.2172,11296.367)"
             id="path2464" /><path
             id="path2868"
             style="fill:#8b251c;fill-opacity:1;fill-rule:nonzero;stroke:none"
             d="m 7467.91,6504.27 0.01,-96050.27 527.26,0 -0.01,96050.27"
             inkscape:connector-curvature="0" /></g><path
           inkscape:connector-curvature="0"
           d="m 1080.9229,529.10249 c -12.2134,0 -22.1934,9.98933 -22.1934,22.192 l 0,0.38667 c 0,-10.77734 9.98,-19.608 22.1934,-19.608 l 39.34,0 0,-2.97067 -39.34,0"
           style="fill:#fffaa3;fill-opacity:1;fill-rule:nonzero;stroke:none"
           id="path2870" /><path
           inkscape:connector-curvature="0"
           d="m 1159.6029,529.10249 -39.34,0 0,2.97067 39.34,0 c 12.204,0 22.1946,8.83066 22.1946,19.608 l 0,-0.38667 c 0,-12.20267 -9.9906,-22.192 -22.1946,-22.192"
           style="fill:#ceeba0;fill-opacity:1;fill-rule:nonzero;stroke:none"
           id="path2872" /></g></g></g></svg>